<mxfile host="app.diagrams.net" modified="2024-05-10T08:05:32.820Z" agent="Mozilla/5.0 (Windows NT 10.0; Win64; x64) AppleWebKit/537.36 (KHTML, like Gecko) Chrome/124.0.0.0 Safari/537.36" etag="1_9JGs8tPOW69j-LXqfy" version="24.3.1" type="device">
  <diagram name="Page-1" id="JriZ_7RZmUqfFGxGuoUM">
    <mxGraphModel dx="1584" dy="759" grid="0" gridSize="10" guides="1" tooltips="1" connect="1" arrows="1" fold="1" page="1" pageScale="1" pageWidth="827" pageHeight="1169" math="0" shadow="0">
      <root>
        <mxCell id="0" />
        <mxCell id="1" parent="0" />
        <mxCell id="4B-1JcJdaMHV0bxuoDUO-41" value="" style="shape=image;verticalLabelPosition=bottom;labelBackgroundColor=default;verticalAlign=top;aspect=fixed;imageAspect=0;image=data:image/svg+xml,PHN2ZyB4bWxucz0iaHR0cDovL3d3dy53My5vcmcvMjAwMC9zdmciIGZpbGw9Im5vbmUiIHZpZXdCb3g9IjAgMCA5NiA0NCIgaGVpZ2h0PSI0NCIgd2lkdGg9Ijk2Ij4mI3hhOzxyZWN0IGZpbGw9IiNGQ0ZDRkMiIHJ4PSIzIiBoZWlnaHQ9IjQyIiB3aWR0aD0iOTQiIHk9IjEiIHg9IjEiLz4mI3hhOzxyZWN0IHN0cm9rZS13aWR0aD0iMiIgc3Ryb2tlPSJibGFjayIgcng9IjMiIGhlaWdodD0iNDIiIHdpZHRoPSI5NCIgeT0iMSIgeD0iMSIvPiYjeGE7PGcgY2xpcC1wYXRoPSJ1cmwoI2NsaXAwXzE0M181MjQxKSI+JiN4YTs8cGF0aCBmaWxsPSJibGFjayIgZD0iTTIxLjk5NzUgMTQuNjg1MUwzMS45OTQ0IDMyLjAwMDFIMTJMMjEuOTk3NSAxNC42ODUxWiIvPiYjeGE7PC9nPiYjeGE7PHBhdGggZmlsbD0iYmxhY2siIGQ9Ik00Ni42MjE5IDI1LjVMNDQuNTk3OSAxNy40N0g0Ni4wMTY5TDQ3LjIzNzkgMjIuNzA2QzQ3LjMwMzkgMjIuOTYyNyA0Ny4zNjI2IDIzLjI0MTMgNDcuNDEzOSAyMy41NDJDNDcuNDcyNiAyMy44MzUzIDQ3LjUxNjYgMjQuMDcgNDcuNTQ1OSAyNC4yNDZDNDcuNTc1MiAyNC4wNyA0Ny42MTU2IDIzLjgzNTMgNDcuNjY2OSAyMy41NDJDNDcuNzI1NiAyMy4yNDEzIDQ3Ljc4NzkgMjIuOTU5IDQ3Ljg1MzkgMjIuNjk1TDQ5LjAzMDkgMTcuNDdINTAuNDI3OUw0OC40MDM5IDI1LjVINDYuNjIxOVpNNTQuMTE5NiAyNS42MUM1My42MDYzIDI1LjYxIDUzLjE1ODkgMjUuNTExIDUyLjc3NzYgMjUuMzEzQzUyLjM5NjMgMjUuMTE1IDUyLjA5OTMgMjQuODM2MyA1MS44ODY2IDI0LjQ3N0M1MS42ODEzIDI0LjExMDMgNTEuNTc4NiAyMy42ODEzIDUxLjU3ODYgMjMuMTlWMjEuNzZDNTEuNTc4NiAyMS4yNjg3IDUxLjY4MTMgMjAuODQzMyA1MS44ODY2IDIwLjQ4NEM1Mi4wOTkzIDIwLjExNzMgNTIuMzk2MyAxOS44MzUgNTIuNzc3NiAxOS42MzdDNTMuMTU4OSAxOS40MzkgNTMuNjA2MyAxOS4zNCA1NC4xMTk2IDE5LjM0QzU0LjYyNTYgMTkuMzQgNTUuMDY1NiAxOS40MzkgNTUuNDM5NiAxOS42MzdDNTUuODIwOSAxOS44MzUgNTYuMTE0MyAyMC4xMTM3IDU2LjMxOTYgMjAuNDczQzU2LjUzMjMgMjAuODI1IDU2LjYzODYgMjEuMjM5MyA1Ni42Mzg2IDIxLjcxNlYyMi44MTZINTIuODk4NlYyMy4yMzRDNTIuODk4NiAyMy42NDQ3IDUzLjAwNDkgMjMuOTU2MyA1My4yMTc2IDI0LjE2OUM1My40MzAzIDI0LjM3NDMgNTMuNzMwOSAyNC40NzcgNTQuMTE5NiAyNC40NzdDNTQuNDA1NiAyNC40NzcgNTQuNjQ3NiAyNC40MjkzIDU0Ljg0NTYgMjQuMzM0QzU1LjA1MDkgMjQuMjMxMyA1NS4xNzE5IDI0LjA4NDcgNTUuMjA4NiAyMy44OTRINTYuNTcyNkM1Ni40NzczIDI0LjQxNDcgNTYuMjA1OSAyNC44MzI3IDU1Ljc1ODYgMjUuMTQ4QzU1LjMxMTMgMjUuNDU2IDU0Ljc2NDkgMjUuNjEgNTQuMTE5NiAyNS42MVpNNTIuODk4NiAyMS43MTZWMjEuOTI1TDU1LjMxODYgMjEuOTE0VjIxLjcwNUM1NS4zMTg2IDIxLjI4NyA1NS4yMTU5IDIwLjk2NDMgNTUuMDEwNiAyMC43MzdDNTQuODA1MyAyMC41MDk3IDU0LjUwODMgMjAuMzk2IDU0LjExOTYgMjAuMzk2QzUzLjcxNjMgMjAuMzk2IDUzLjQxMTkgMjAuNTEzMyA1My4yMDY2IDIwLjc0OEM1My4wMDEzIDIwLjk3NTMgNTIuODk4NiAyMS4yOTggNTIuODk4NiAyMS43MTZaTTU4LjQ3MTMgMjUuNVYxOS40NUg1OS44MTMzVjIwLjYyN0M1OS44ODY2IDIwLjIzMSA2MC4wNjYzIDE5LjkxOTMgNjAuMzUyMyAxOS42OTJDNjAuNjQ1NiAxOS40NTczIDYxLjAyMzMgMTkuMzQgNjEuNDg1MyAxOS4zNEM2Mi4xMDEzIDE5LjM0IDYyLjU4MTYgMTkuNTM4IDYyLjkyNjMgMTkuOTM0QzYzLjI3MSAyMC4zMyA2My40NDMzIDIwLjg4MzcgNjMuNDQzMyAyMS41OTVWMjIuMTY3SDYyLjA2ODNWMjEuNjYxQzYyLjA2ODMgMjEuMjk0MyA2MS45NzMgMjEuMDE1NyA2MS43ODIzIDIwLjgyNUM2MS41OTE2IDIwLjYyNyA2MS4zMjAzIDIwLjUyOCA2MC45NjgzIDIwLjUyOEM2MC42MDE2IDIwLjUyOCA2MC4zMjMgMjAuNjM4IDYwLjEzMjMgMjAuODU4QzU5Ljk0MTYgMjEuMDc4IDU5Ljg0NjMgMjEuMzg5NyA1OS44NDYzIDIxLjc5M1YyNS41SDU4LjQ3MTNaTTY3LjM5OSAyNS42MUM2Ni44NzgzIDI1LjYxIDY2LjQyMzcgMjUuNTE0NyA2Ni4wMzUgMjUuMzI0QzY1LjY1MzcgMjUuMTI2IDY1LjM1NjcgMjQuODUxIDY1LjE0NCAyNC40OTlDNjQuOTMxMyAyNC4xMzk3IDY0LjgyNSAyMy43MTggNjQuODI1IDIzLjIzNFYyMS43MTZDNjQuODI1IDIxLjIzMiA2NC45MzEzIDIwLjgxNCA2NS4xNDQgMjAuNDYyQzY1LjM1NjcgMjAuMTAyNyA2NS42NTM3IDE5LjgyNzcgNjYuMDM1IDE5LjYzN0M2Ni40MjM3IDE5LjQzOSA2Ni44NzgzIDE5LjM0IDY3LjM5OSAxOS4zNEM2OC4xNTQzIDE5LjM0IDY4Ljc1OTMgMTkuNTM4IDY5LjIxNCAxOS45MzRDNjkuNjc2IDIwLjMyMjcgNjkuOTE4IDIwLjg1NDMgNjkuOTQgMjEuNTI5SDY4LjU4N0M2OC41NjUgMjEuMjEzNyA2OC40NDQgMjAuOTcxNyA2OC4yMjQgMjAuODAzQzY4LjAxMTMgMjAuNjI3IDY3LjczNjMgMjAuNTM5IDY3LjM5OSAyMC41MzlDNjcuMDI1IDIwLjUzOSA2Ni43MzE3IDIwLjY0MTcgNjYuNTE5IDIwLjg0N0M2Ni4zMDYzIDIxLjA0NSA2Ni4yIDIxLjMzMSA2Ni4yIDIxLjcwNVYyMy4yMzRDNjYuMiAyMy42MDggNjYuMzA2MyAyMy44OTc3IDY2LjUxOSAyNC4xMDNDNjYuNzMxNyAyNC4zMDgzIDY3LjAyNSAyNC40MTEgNjcuMzk5IDI0LjQxMUM2Ny43NDM3IDI0LjQxMSA2OC4wMjIzIDI0LjMyNjcgNjguMjM1IDI0LjE1OEM2OC40NDc3IDIzLjk4MiA2OC41NjUgMjMuNzM2MyA2OC41ODcgMjMuNDIxSDY5Ljk0QzY5LjkxOCAyNC4wOTU3IDY5LjY3NiAyNC42MzEgNjkuMjE0IDI1LjAyN0M2OC43NTkzIDI1LjQxNTcgNjguMTU0MyAyNS42MSA2Ny4zOTkgMjUuNjFaTTczLjkwNjcgMjUuNjFDNzMuMzkzNCAyNS42MSA3Mi45NDYgMjUuNTExIDcyLjU2NDcgMjUuMzEzQzcyLjE4MzQgMjUuMTE1IDcxLjg4NjQgMjQuODM2MyA3MS42NzM3IDI0LjQ3N0M3MS40Njg0IDI0LjExMDMgNzEuMzY1NyAyMy42ODEzIDcxLjM2NTcgMjMuMTlWMjEuNzZDNzEuMzY1NyAyMS4yNjg3IDcxLjQ2ODQgMjAuODQzMyA3MS42NzM3IDIwLjQ4NEM3MS44ODY0IDIwLjExNzMgNzIuMTgzNCAxOS44MzUgNzIuNTY0NyAxOS42MzdDNzIuOTQ2IDE5LjQzOSA3My4zOTM0IDE5LjM0IDczLjkwNjcgMTkuMzRDNzQuNDEyNyAxOS4zNCA3NC44NTI3IDE5LjQzOSA3NS4yMjY3IDE5LjYzN0M3NS42MDggMTkuODM1IDc1LjkwMTQgMjAuMTEzNyA3Ni4xMDY3IDIwLjQ3M0M3Ni4zMTk0IDIwLjgyNSA3Ni40MjU3IDIxLjIzOTMgNzYuNDI1NyAyMS43MTZWMjIuODE2SDcyLjY4NTdWMjMuMjM0QzcyLjY4NTcgMjMuNjQ0NyA3Mi43OTIgMjMuOTU2MyA3My4wMDQ3IDI0LjE2OUM3My4yMTc0IDI0LjM3NDMgNzMuNTE4IDI0LjQ3NyA3My45MDY3IDI0LjQ3N0M3NC4xOTI3IDI0LjQ3NyA3NC40MzQ3IDI0LjQyOTMgNzQuNjMyNyAyNC4zMzRDNzQuODM4IDI0LjIzMTMgNzQuOTU5IDI0LjA4NDcgNzQuOTk1NyAyMy44OTRINzYuMzU5N0M3Ni4yNjQ0IDI0LjQxNDcgNzUuOTkzIDI0LjgzMjcgNzUuNTQ1NyAyNS4xNDhDNzUuMDk4NCAyNS40NTYgNzQuNTUyIDI1LjYxIDczLjkwNjcgMjUuNjFaTTcyLjY4NTcgMjEuNzE2VjIxLjkyNUw3NS4xMDU3IDIxLjkxNFYyMS43MDVDNzUuMTA1NyAyMS4yODcgNzUuMDAzIDIwLjk2NDMgNzQuNzk3NyAyMC43MzdDNzQuNTkyNCAyMC41MDk3IDc0LjI5NTQgMjAuMzk2IDczLjkwNjcgMjAuMzk2QzczLjUwMzQgMjAuMzk2IDczLjE5OSAyMC41MTMzIDcyLjk5MzcgMjAuNzQ4QzcyLjc4ODQgMjAuOTc1MyA3Mi42ODU3IDIxLjI5OCA3Mi42ODU3IDIxLjcxNlpNODEuNDcwNCAyNS41QzgwLjg2OTEgMjUuNSA4MC4zODUxIDI1LjMyMDMgODAuMDE4NCAyNC45NjFDNzkuNjU5MSAyNC42MDE3IDc5LjQ3OTQgMjQuMTI4NyA3OS40Nzk0IDIzLjU0MlYxOC43MTNINzcuNDg4NFYxNy40N0g4MC44NTQ0VjIzLjUwOUM4MC44NTQ0IDIzLjczNjMgODAuOTE2NyAyMy45MTk3IDgxLjA0MTQgMjQuMDU5QzgxLjE3MzQgMjQuMTkxIDgxLjM0OTQgMjQuMjU3IDgxLjU2OTQgMjQuMjU3SDgzLjM0MDRWMjUuNUg4MS40NzA0WiIvPiYjeGE7PGRlZnM+JiN4YTs8Y2xpcFBhdGggaWQ9ImNsaXAwXzE0M181MjQxIj4mI3hhOzxyZWN0IHRyYW5zZm9ybT0idHJhbnNsYXRlKDEyIDEyKSIgZmlsbD0id2hpdGUiIGhlaWdodD0iMjAiIHdpZHRoPSIyMCIvPiYjeGE7PC9jbGlwUGF0aD4mI3hhOzwvZGVmcz4mI3hhOzwvc3ZnPg==;imageBackground=none;imageBorder=none;" vertex="1" parent="1">
          <mxGeometry x="565.5009301757813" y="296.49526715959826" width="96" height="44" as="geometry" />
        </mxCell>
        <mxCell id="4B-1JcJdaMHV0bxuoDUO-42" value="" style="shape=image;verticalLabelPosition=bottom;labelBackgroundColor=default;verticalAlign=top;aspect=fixed;imageAspect=0;image=data:image/svg+xml,PHN2ZyB4bWxucz0iaHR0cDovL3d3dy53My5vcmcvMjAwMC9zdmciIGZpbGw9Im5vbmUiIHZpZXdCb3g9IjAgMCAxNDkgNDQiIGhlaWdodD0iNDQiIHdpZHRoPSIxNDkiPiYjeGE7PHJlY3QgZmlsbD0iI0ZDRkNGQyIgcng9IjMiIGhlaWdodD0iNDIiIHdpZHRoPSIxNDciIHk9IjEiIHg9IjEiLz4mI3hhOzxyZWN0IHN0cm9rZS13aWR0aD0iMiIgc3Ryb2tlPSJibGFjayIgcng9IjMiIGhlaWdodD0iNDIiIHdpZHRoPSIxNDciIHk9IjEiIHg9IjEiLz4mI3hhOzxnIGNsaXAtcGF0aD0idXJsKCNjbGlwMF8xNDNfNTI1NCkiPiYjeGE7PHBhdGggZmlsbD0iIzIwODhGRiIgZD0iTTE2LjE2NjYgMTJDMTMuODcwMyAxMiAxMiAxMy44NzAzIDEyIDE2LjE2NjZDMTIgMTguMTc3NSAxMy40MzQ1IDE5Ljg2MiAxNS4zMzM0IDIwLjI0OTRWMjYuMTY2NkMxNS4zMzM0IDI4LjAwNTYgMTYuODQ1OSAyOS41IDE4LjY2NjYgMjkuNUgxOC42OTdDMTguOTAwNSAzMC45MDk4IDIwLjExODkgMzIgMjEuNTgzNCAzMkMyMy4xODk0IDMyIDI0LjUgMzAuNjg5NCAyNC41IDI5LjA4MzRDMjQuNSAyNy40Nzc1IDIzLjE4OTQgMjYuMTY2NiAyMS41ODM0IDI2LjE2NjZDMjAuMTE5MSAyNi4xNjY2IDE4LjkwMDYgMjcuMjU2NyAxOC42OTcgMjguNjY2NkgxOC42NjY2QzE3LjMwMTQgMjguNjY2NiAxNi4xNjY2IDI3LjU0OTEgMTYuMTY2NiAyNi4xNjY2VjIxLjk2NTVDMTYuNDM2MiAyMi4yNDA2IDE2Ljc1ODEgMjIuNDU5MSAxNy4xMTM0IDIyLjYwODJDMTcuNDY4NiAyMi43NTcyIDE3Ljg1MDEgMjIuODMzOCAxOC4yMzUzIDIyLjgzMzRIMTguNjk3QzE4LjkwMDYgMjQuMjQzMyAyMC4xMTg5IDI1LjMzMzQgMjEuNTgzNCAyNS4zMzM0QzIzLjA0NzggMjUuMzMzNCAyNC4yNjYxIDI0LjI0MzMgMjQuNDY5NCAyMi44MzM0SDI2LjE5N0MyNi40MDA2IDI0LjI0MzMgMjcuNjE4OSAyNS4zMzM0IDI5LjA4MzQgMjUuMzMzNEMzMC42ODk0IDI1LjMzMzQgMzIgMjQuMDIyNSAzMiAyMi40MTY2QzMyIDIwLjgxMDYgMzAuNjg5NCAxOS41IDI5LjA4MzQgMTkuNUMyNy42MTg5IDE5LjUgMjYuNDAwNSAyMC41OTAyIDI2LjE5NyAyMkgyNC40Njk1QzI0LjI2NjMgMjAuNTkwMiAyMy4wNDggMTkuNSAyMS41ODM0IDE5LjVDMjAuMTE4OSAxOS41IDE4LjkwMDUgMjAuNTkwMiAxOC42OTcgMjJIMTguMjM1M0MxNy4yMzAyIDIyIDE2LjM5MjcgMjEuMjgzIDE2LjIwNTkgMjAuMzMyNUMxOC40ODQxIDIwLjMxMTIgMjAuMzMzNCAxOC40NDk3IDIwLjMzMzQgMTYuMTY2NkMyMC4zMzM0IDEzLjg3MDMgMTguNDYyOCAxMiAxNi4xNjY2IDEyWk0xNi4xNjY2IDEyLjgzMzRDMTYuNjA0NSAxMi44MzI2IDE3LjAzODQgMTIuOTE4MiAxNy40NDMyIDEzLjA4NTRDMTcuODQ4IDEzLjI1MjYgMTguMjE1OCAxMy40OTgxIDE4LjUyNTUgMTMuODA3N0MxOC44MzUyIDE0LjExNzQgMTkuMDgwNyAxNC40ODUyIDE5LjI0NzkgMTQuODlDMTkuNDE1MiAxNS4yOTQ4IDE5LjUwMDggMTUuNzI4NiAxOS41IDE2LjE2NjZDMTkuNTAwOCAxNi42MDQ1IDE5LjQxNTIgMTcuMDM4NCAxOS4yNDc5IDE3LjQ0MzJDMTkuMDgwNyAxNy44NDggMTguODM1MiAxOC4yMTU4IDE4LjUyNTUgMTguNTI1NUMxOC4yMTU4IDE4LjgzNTIgMTcuODQ4IDE5LjA4MDcgMTcuNDQzMiAxOS4yNDc5QzE3LjAzODQgMTkuNDE1MiAxNi42MDQ1IDE5LjUwMDggMTYuMTY2NiAxOS41QzE1LjcyODYgMTkuNTAwOCAxNS4yOTQ4IDE5LjQxNTIgMTQuODkgMTkuMjQ3OUMxNC40ODUyIDE5LjA4MDcgMTQuMTE3NCAxOC44MzUyIDEzLjgwNzcgMTguNTI1NUMxMy40OTgxIDE4LjIxNTggMTMuMjUyNiAxNy44NDggMTMuMDg1NCAxNy40NDMyQzEyLjkxODIgMTcuMDM4NCAxMi44MzI2IDE2LjYwNDUgMTIuODMzNCAxNi4xNjY2QzEyLjgzMjYgMTUuNzI4NiAxMi45MTgyIDE1LjI5NDggMTMuMDg1NCAxNC44OUMxMy4yNTI2IDE0LjQ4NTIgMTMuNDk4MSAxNC4xMTc0IDEzLjgwNzggMTMuODA3OEMxNC4xMTc0IDEzLjQ5ODEgMTQuNDg1MiAxMy4yNTI2IDE0Ljg5IDEzLjA4NTRDMTUuMjk0OCAxMi45MTgyIDE1LjcyODYgMTIuODMyNiAxNi4xNjY2IDEyLjgzMzRaTTE1LjM1MTcgMTQuMDExN0MxNC45MTcyIDE0LjAxMzkgMTQuNSAxNC4zNjMgMTQuNSAxNC44Mzg0VjE3LjUwMTRDMTQuNSAxOC4xMzMxIDE1LjIzNTggMTguNTQyNSAxNS43NzI3IDE4LjIwOTdMMTcuOTAzIDE2Ljg4ODZDMTguNDExOSAxNi41NzMgMTguNDE0NSAxNS43OTQ1IDE3LjkwOCAxNS40NzUzTDE1Ljc3NzUgMTQuMTMzMUMxNS42NTAyIDE0LjA1MjYgMTUuNTAyNCAxNC4wMTA1IDE1LjM1MTcgMTQuMDExN1pNMTUuMzMzNCAxNC44Mzg0TDE3LjQ2MzkgMTYuMTgwM0wxNS4zMzM0IDE3LjUwMTRWMTQuODM4NFpNMjEuNTgzNCAyMC4zMzM0QzIxLjg1NzIgMjAuMzMyNiAyMi4xMjg1IDIwLjM4NTkgMjIuMzgxNiAyMC40OTAyQzIyLjYzNDggMjAuNTk0NiAyMi44NjQ4IDIwLjc0OCAyMy4wNTg0IDIwLjk0MTZDMjMuMjUyIDIxLjEzNTIgMjMuNDA1NCAyMS4zNjUyIDIzLjUwOTggMjEuNjE4NEMyMy42MTQxIDIxLjg3MTUgMjMuNjY3NCAyMi4xNDI4IDIzLjY2NjYgMjIuNDE2NkMyMy42Njc0IDIyLjY5MDQgMjMuNjE0MSAyMi45NjE3IDIzLjUwOTcgMjMuMjE0OEMyMy40MDUzIDIzLjQ2NzkgMjMuMjUxOSAyMy42OTc5IDIzLjA1ODMgMjMuODkxNkMyMi44NjQ3IDI0LjA4NTIgMjIuNjM0OCAyNC4yMzg2IDIyLjM4MTYgMjQuMzQzQzIyLjEyODUgMjQuNDQ3NSAyMS44NTcyIDI0LjUwMDggMjEuNTgzNCAyNC41QzIxLjMwOTYgMjQuNTAwOCAyMS4wMzgzIDI0LjQ0NzUgMjAuNzg1MiAyNC4zNDMxQzIwLjUzMiAyNC4yMzg3IDIwLjMwMiAyNC4wODUyIDIwLjEwODQgMjMuODkxNkMxOS45MTQ4IDIzLjY5OCAxOS43NjEzIDIzLjQ2OCAxOS42NTY5IDIzLjIxNDhDMTkuNTUyNSAyMi45NjE3IDE5LjQ5OTIgMjIuNjkwNCAxOS41IDIyLjQxNjZDMTkuNDk5MiAyMi4xNDI4IDE5LjU1MjUgMjEuODcxNSAxOS42NTcgMjEuNjE4NEMxOS43NjE0IDIxLjM2NTIgMTkuOTE0OCAyMS4xMzUzIDIwLjEwODQgMjAuOTQxN0MyMC4zMDIxIDIwLjc0ODEgMjAuNTMyMSAyMC41OTQ3IDIwLjc4NTIgMjAuNDkwM0MyMS4wMzgzIDIwLjM4NTkgMjEuMzA5NiAyMC4zMzI2IDIxLjU4MzQgMjAuMzMzNFpNMjkuMDgzNCAyMC4zMzM0QzI5LjM1NzIgMjAuMzMyNiAyOS42Mjg1IDIwLjM4NTkgMjkuODgxNiAyMC40OTAyQzMwLjEzNDggMjAuNTk0NiAzMC4zNjQ4IDIwLjc0OCAzMC41NTg0IDIwLjk0MTZDMzAuNzUyIDIxLjEzNTIgMzAuOTA1NCAyMS4zNjUyIDMxLjAwOTggMjEuNjE4NEMzMS4xMTQxIDIxLjg3MTUgMzEuMTY3NCAyMi4xNDI4IDMxLjE2NjYgMjIuNDE2NkMzMS4xNjc0IDIyLjY5MDQgMzEuMTE0MSAyMi45NjE3IDMxLjAwOTcgMjMuMjE0OEMzMC45MDUzIDIzLjQ2NzkgMzAuNzUxOSAyMy42OTc5IDMwLjU1ODMgMjMuODkxNkMzMC4zNjQ3IDI0LjA4NTIgMzAuMTM0OCAyNC4yMzg2IDI5Ljg4MTYgMjQuMzQzQzI5LjYyODUgMjQuNDQ3NSAyOS4zNTcyIDI0LjUwMDggMjkuMDgzNCAyNC41QzI4LjgwOTYgMjQuNTAwOCAyOC41MzgzIDI0LjQ0NzUgMjguMjg1MiAyNC4zNDMxQzI4LjAzMiAyNC4yMzg3IDI3LjgwMiAyNC4wODUyIDI3LjYwODQgMjMuODkxNkMyNy40MTQ4IDIzLjY5OCAyNy4yNjEzIDIzLjQ2OCAyNy4xNTY5IDIzLjIxNDhDMjcuMDUyNSAyMi45NjE3IDI2Ljk5OTIgMjIuNjkwNCAyNyAyMi40MTY2QzI2Ljk5OTIgMjIuMTQyOCAyNy4wNTI1IDIxLjg3MTUgMjcuMTU3IDIxLjYxODRDMjcuMjYxNCAyMS4zNjUyIDI3LjQxNDggMjEuMTM1MyAyNy42MDg0IDIwLjk0MTdDMjcuODAyMSAyMC43NDgxIDI4LjAzMjEgMjAuNTk0NyAyOC4yODUyIDIwLjQ5MDNDMjguNTM4MyAyMC4zODU5IDI4LjgwOTYgMjAuMzMyNiAyOS4wODM0IDIwLjMzMzRaTTIyLjQzMjIgMjEuNDE5NUMyMi4zNzc0IDIxLjQxOTUgMjIuMzIzMiAyMS40MzAyIDIyLjI3MjYgMjEuNDUxMUMyMi4yMjIgMjEuNDcyIDIyLjE3NjEgMjEuNTAyNyAyMi4xMzczIDIxLjU0MTRMMjEuMTUzIDIyLjUyNDhMMjAuODI1OSAyMi4xOTkyQzIwLjc0NzcgMjIuMTIxMiAyMC42NDE2IDIyLjA3NzUgMjAuNTMxMSAyMi4wNzc3QzIwLjQyMDYgMjIuMDc3OSAyMC4zMTQ3IDIyLjEyMTkgMjAuMjM2NyAyMi4yMDAyQzIwLjE5ODEgMjIuMjM4OSAyMC4xNjc1IDIyLjI4NDkgMjAuMTQ2NyAyMi4zMzU1QzIwLjEyNTggMjIuMzg2MiAyMC4xMTUyIDIyLjQ0MDQgMjAuMTE1MyAyMi40OTUxQzIwLjExNTQgMjIuNTQ5OCAyMC4xMjYzIDIyLjYwNCAyMC4xNDczIDIyLjY1NDVDMjAuMTY4NCAyMi43MDUgMjAuMTk5MiAyMi43NTA5IDIwLjIzOCAyMi43ODk1TDIwLjg1ODkgMjMuNDA4M0MyMC45MzcgMjMuNDg2MSAyMS4wNDI5IDIzLjUyOTggMjEuMTUzMiAyMy41Mjk4QzIxLjI2MzUgMjMuNTI5OCAyMS4zNjkzIDIzLjQ4NiAyMS40NDczIDIzLjQwODFMMjIuNzI2MyAyMi4xMzA5QzIyLjc2NSAyMi4wOTIzIDIyLjc5NTcgMjIuMDQ2MyAyMi44MTY3IDIxLjk5NThDMjIuODM3NiAyMS45NDUyIDIyLjg0ODUgMjEuODkxIDIyLjg0ODUgMjEuODM2M0MyMi44NDg1IDIxLjc4MTYgMjIuODM3OCAyMS43Mjc0IDIyLjgxNjggMjEuNjc2OEMyMi43OTU5IDIxLjYyNjIgMjIuNzY1MiAyMS41ODAzIDIyLjcyNjYgMjEuNTQxNkMyMi42NDg1IDIxLjQ2MzUgMjIuNTQyNiAyMS40MTk2IDIyLjQzMjIgMjEuNDE5NVpNMjkuOTMyMiAyMS40MTk1QzI5Ljg3NzQgMjEuNDE5NSAyOS44MjMyIDIxLjQzMDIgMjkuNzcyNiAyMS40NTExQzI5LjcyMiAyMS40NzIgMjkuNjc2MSAyMS41MDI3IDI5LjYzNzMgMjEuNTQxNEwyOC42NTMgMjIuNTI0OEwyOC4zMjU5IDIyLjE5OTJDMjguMjQ3NyAyMi4xMjEyIDI4LjE0MTYgMjIuMDc3NSAyOC4wMzExIDIyLjA3NzdDMjcuOTIwNiAyMi4wNzc5IDI3LjgxNDcgMjIuMTIxOSAyNy43MzY3IDIyLjIwMDJDMjcuNjk4MSAyMi4yMzg5IDI3LjY2NzUgMjIuMjg0OSAyNy42NDY3IDIyLjMzNTVDMjcuNjI1OCAyMi4zODYyIDI3LjYxNTIgMjIuNDQwNCAyNy42MTUzIDIyLjQ5NTFDMjcuNjE1NCAyMi41NDk4IDI3LjYyNjMgMjIuNjA0IDI3LjY0NzMgMjIuNjU0NUMyNy42Njg0IDIyLjcwNSAyNy42OTkyIDIyLjc1MDkgMjcuNzM4IDIyLjc4OTVMMjguMzU4OSAyMy40MDgzQzI4LjQzNyAyMy40ODYxIDI4LjU0MjkgMjMuNTI5OCAyOC42NTMyIDIzLjUyOThDMjguNzYzNSAyMy41Mjk4IDI4Ljg2OTMgMjMuNDg2IDI4Ljk0NzMgMjMuNDA4MUwzMC4yMjYzIDIyLjEzMDlDMzAuMjY1IDIyLjA5MjMgMzAuMjk1NyAyMi4wNDYzIDMwLjMxNjcgMjEuOTk1OEMzMC4zMzc2IDIxLjk0NTIgMzAuMzQ4NSAyMS44OTEgMzAuMzQ4NSAyMS44MzYzQzMwLjM0ODUgMjEuNzgxNiAzMC4zMzc4IDIxLjcyNzQgMzAuMzE2OCAyMS42NzY4QzMwLjI5NTkgMjEuNjI2MiAzMC4yNjUyIDIxLjU4MDMgMzAuMjI2NiAyMS41NDE2QzMwLjE0ODUgMjEuNDYzNSAzMC4wNDI2IDIxLjQxOTYgMjkuOTMyMiAyMS40MTk1Wk0yMS41ODM0IDI3QzIxLjg1NzIgMjYuOTk5MiAyMi4xMjg1IDI3LjA1MjUgMjIuMzgxNiAyNy4xNTdDMjIuNjM0OCAyNy4yNjE0IDIyLjg2NDcgMjcuNDE0OCAyMy4wNTgzIDI3LjYwODRDMjMuMjUxOSAyNy44MDIxIDIzLjQwNTMgMjguMDMyMSAyMy41MDk3IDI4LjI4NTJDMjMuNjE0MSAyOC41MzgzIDIzLjY2NzQgMjguODA5NiAyMy42NjY2IDI5LjA4MzRDMjMuNjY3NCAyOS4zNTcyIDIzLjYxNDEgMjkuNjI4NSAyMy41MDk4IDI5Ljg4MTZDMjMuNDA1NCAzMC4xMzQ4IDIzLjI1MiAzMC4zNjQ4IDIzLjA1ODQgMzAuNTU4NEMyMi44NjQ4IDMwLjc1MiAyMi42MzQ4IDMwLjkwNTQgMjIuMzgxNiAzMS4wMDk4QzIyLjEyODUgMzEuMTE0MSAyMS44NTcyIDMxLjE2NzQgMjEuNTgzNCAzMS4xNjY2QzIxLjMwOTYgMzEuMTY3NCAyMS4wMzgzIDMxLjExNDEgMjAuNzg1MiAzMS4wMDk3QzIwLjUzMjEgMzAuOTA1MyAyMC4zMDIxIDMwLjc1MTkgMjAuMTA4NCAzMC41NTgzQzE5LjkxNDggMzAuMzY0NyAxOS43NjE0IDMwLjEzNDggMTkuNjU3IDI5Ljg4MTZDMTkuNTUyNSAyOS42Mjg1IDE5LjQ5OTIgMjkuMzU3MiAxOS41IDI5LjA4MzRDMTkuNDk5MiAyOC44MDk2IDE5LjU1MjUgMjguNTM4MyAxOS42NTY5IDI4LjI4NTJDMTkuNzYxMyAyOC4wMzIgMTkuOTE0OCAyNy44MDIgMjAuMTA4NCAyNy42MDg0QzIwLjMwMiAyNy40MTQ4IDIwLjUzMiAyNy4yNjEzIDIwLjc4NTIgMjcuMTU2OUMyMS4wMzgzIDI3LjA1MjUgMjEuMzA5NiAyNi45OTkyIDIxLjU4MzQgMjdaTTIwLjc1IDI4LjQ1ODRDMjAuNDA3MyAyOC40NTg0IDIwLjEyNSAyOC43NDA4IDIwLjEyNSAyOS4wODM0QzIwLjEyNSAyOS40MjY0IDIwLjQwNzUgMjkuNzA4NCAyMC43NSAyOS43MDg0QzIxLjA5MjUgMjkuNzA4NCAyMS4zNzUgMjkuNDI2NCAyMS4zNzUgMjkuMDgzNEMyMS4zNzUgMjguNzQwOCAyMS4wOTI3IDI4LjQ1ODQgMjAuNzUgMjguNDU4NFpNMjIuNDE2NiAyOC40NTg0QzIyLjA3MzkgMjguNDU4NCAyMS43OTE2IDI4Ljc0MDggMjEuNzkxNiAyOS4wODM0QzIxLjc5MTYgMjkuNDI2NCAyMi4wNzQxIDI5LjcwODQgMjIuNDE2NiAyOS43MDg0QzIyLjc1OTEgMjkuNzA4NCAyMy4wNDE2IDI5LjQyNjQgMjMuMDQxNiAyOS4wODM0QzIzLjA0MTYgMjguNzQwOCAyMi43NTkyIDI4LjQ1ODQgMjIuNDE2NiAyOC40NTg0Wk0yMC43NSAyOC44NzVDMjAuODY3MiAyOC44NzUgMjAuOTU4NCAyOC45NjY0IDIwLjk1ODQgMjkuMDgzNEMyMC45NTg0IDI5LjIwMTEgMjAuODY3MyAyOS4yOTE2IDIwLjc1IDI5LjI5MTZDMjAuNjMyOCAyOS4yOTE2IDIwLjU0MTYgMjkuMjAwOSAyMC41NDE2IDI5LjA4MzRDMjAuNTQxNiAyOC45NjYyIDIwLjYzMyAyOC44NzUgMjAuNzUgMjguODc1Wk0yMi40MTY2IDI4Ljg3NUMyMi41MzM4IDI4Ljg3NSAyMi42MjUgMjguOTY2NCAyMi42MjUgMjkuMDgzNEMyMi42MjUgMjkuMjAxMSAyMi41MzM5IDI5LjI5MTYgMjIuNDE2NiAyOS4yOTE2QzIyLjI5OTQgMjkuMjkxNiAyMi4yMDg0IDI5LjIwMDkgMjIuMjA4NCAyOS4wODM0QzIyLjIwODQgMjguOTY2MiAyMi4yOTk1IDI4Ljg3NSAyMi40MTY2IDI4Ljg3NVoiLz4mI3hhOzxwYXRoIGZpbGw9IiM3OUI4RkYiIGQ9Ik0yOS4wODM0IDI2LjE2NjVDMjcuNjE3MyAyNi4xNjY1IDI2LjM5NzggMjcuMjU5MiAyNi4xOTY0IDI4LjY3MTNDMjYuMTgyNiAyOC42NzAxIDI2LjE2ODggMjguNjY5NSAyNi4xNTUgMjguNjY5NkwyNS43MzMxIDI4LjY4MzdDMjUuNjIyNyAyOC42ODczIDI1LjUxODMgMjguNzM0NiAyNS40NDI3IDI4LjgxNTJDMjUuMzY3MiAyOC44OTU4IDI1LjMyNjggMjkuMDAzMSAyNS4zMzAzIDI5LjExMzVDMjUuMzMzOSAyOS4yMjQgMjUuMzgxMyAyOS4zMjg0IDI1LjQ2MTkgMjkuNDA0QzI1LjU0MjUgMjkuNDc5NSAyNS42NDk5IDI5LjUxOTkgMjUuNzYwMyAyOS41MTYzTDI2LjE4MjIgMjkuNTAyOEMyNi4xODcyIDI5LjUwMjUgMjYuMTkyMyAyOS41MDIyIDI2LjE5NzMgMjkuNTAxOEMyNi40MDE1IDMwLjkxMDcgMjcuNjE5NSAzMS45OTk5IDI5LjA4MzQgMzEuOTk5OUMzMC42ODk0IDMxLjk5OTkgMzIgMzAuNjg5MyAzMiAyOS4wODM0QzMyIDI3LjQ3NzQgMzAuNjg5NCAyNi4xNjY1IDI5LjA4MzQgMjYuMTY2NVpNMjkuMDgzNCAyNi45OTk5QzI5LjM1NzIgMjYuOTk5MSAyOS42Mjg1IDI3LjA1MjUgMjkuODgxNiAyNy4xNTY5QzMwLjEzNDcgMjcuMjYxMyAzMC4zNjQ3IDI3LjQxNDggMzAuNTU4MyAyNy42MDg0QzMwLjc1MTkgMjcuODAyIDMwLjkwNTMgMjguMDMyIDMxLjAwOTcgMjguMjg1MkMzMS4xMTQxIDI4LjUzODMgMzEuMTY3NCAyOC44MDk2IDMxLjE2NjUgMjkuMDgzNEMzMS4xNjc0IDI5LjM1NzIgMzEuMTE0MSAyOS42Mjg1IDMxLjAwOTcgMjkuODgxNkMzMC45MDU0IDMwLjEzNDcgMzAuNzUyIDMwLjM2NDcgMzAuNTU4MyAzMC41NTgzQzMwLjM2NDcgMzAuNzUxOSAzMC4xMzQ3IDMwLjkwNTMgMjkuODgxNiAzMS4wMDk3QzI5LjYyODUgMzEuMTE0MSAyOS4zNTcyIDMxLjE2NzQgMjkuMDgzNCAzMS4xNjY1QzI4LjgwOTYgMzEuMTY3MyAyOC41MzgzIDMxLjExNCAyOC4yODUyIDMxLjAwOTdDMjguMDMyMSAzMC45MDUzIDI3LjgwMjEgMzAuNzUxOSAyNy42MDg0IDMwLjU1ODNDMjcuNDE0OCAzMC4zNjQ3IDI3LjI2MTQgMzAuMTM0NyAyNy4xNTY5IDI5Ljg4MTZDMjcuMDUyNSAyOS42Mjg1IDI2Ljk5OTIgMjkuMzU3MiAyNyAyOS4wODM0QzI2Ljk5OTIgMjguODA5NSAyNy4wNTI1IDI4LjUzODMgMjcuMTU2OSAyOC4yODUxQzI3LjI2MTMgMjguMDMyIDI3LjQxNDcgMjcuODAyIDI3LjYwODQgMjcuNjA4M0MyNy44MDIgMjcuNDE0NyAyOC4wMzIgMjcuMjYxMyAyOC4yODUxIDI3LjE1NjlDMjguNTM4MyAyNy4wNTI0IDI4LjgwOTYgMjYuOTk5MSAyOS4wODM0IDI2Ljk5OTlaIi8+JiN4YTs8L2c+JiN4YTs8cGF0aCBmaWxsPSJibGFjayIgZD0iTTQ3LjY3NDEgMjUuNjFDNDcuMTUzNCAyNS42MSA0Ni43MDI0IDI1LjUxNDcgNDYuMzIxMSAyNS4zMjRDNDUuOTM5NyAyNS4xMjYgNDUuNjQyNyAyNC44NTEgNDUuNDMwMSAyNC40OTlDNDUuMjI0NyAyNC4xMzk3IDQ1LjEyMjEgMjMuNzE4IDQ1LjEyMjEgMjMuMjM0VjE5LjczNkM0NS4xMjIxIDE5LjI1MiA0NS4yMjQ3IDE4LjgzNCA0NS40MzAxIDE4LjQ4MkM0NS42NDI3IDE4LjEyMjcgNDUuOTM5NyAxNy44NDc3IDQ2LjMyMTEgMTcuNjU3QzQ2LjcwMjQgMTcuNDU5IDQ3LjE1MzQgMTcuMzYgNDcuNjc0MSAxNy4zNkM0OC4xODc0IDE3LjM2IDQ4LjYzNDcgMTcuNDU5IDQ5LjAxNjEgMTcuNjU3QzQ5LjM5NzQgMTcuODQ3NyA0OS42OTQ0IDE4LjEyMjcgNDkuOTA3MSAxOC40ODJDNTAuMTE5NyAxOC44MzQgNTAuMjI2MSAxOS4yNTIgNTAuMjI2MSAxOS43MzZINDguODQwMUM0OC44NDAxIDE5LjM2MiA0OC43Mzc0IDE5LjA3NiA0OC41MzIxIDE4Ljg3OEM0OC4zMzQxIDE4LjY3MjcgNDguMDQ4MSAxOC41NyA0Ny42NzQxIDE4LjU3QzQ3LjMwMDEgMTguNTcgNDcuMDEwNCAxOC42NjkgNDYuODA1MSAxOC44NjdDNDYuNTk5NyAxOS4wNjUgNDYuNDk3MSAxOS4zNTEgNDYuNDk3MSAxOS43MjVWMjMuMjM0QzQ2LjQ5NzEgMjMuNjA4IDQ2LjU5OTcgMjMuODk3NyA0Ni44MDUxIDI0LjEwM0M0Ny4wMTA0IDI0LjMwODMgNDcuMzAwMSAyNC40MTEgNDcuNjc0MSAyNC40MTFDNDguMDQ4MSAyNC40MTEgNDguMzM0MSAyNC4zMDgzIDQ4LjUzMjEgMjQuMTAzQzQ4LjczNzQgMjMuODk3NyA0OC44NDAxIDIzLjYwOCA0OC44NDAxIDIzLjIzNFYyMi4zNDNINDcuNDc2MVYyMS4xNTVINTAuMjI2MVYyMy4yMzRDNTAuMjI2MSAyMy43MTggNTAuMTE5NyAyNC4xMzk3IDQ5LjkwNzEgMjQuNDk5QzQ5LjY5NDQgMjQuODUxIDQ5LjM5NzQgMjUuMTI2IDQ5LjAxNjEgMjUuMzI0QzQ4LjYzNDcgMjUuNTE0NyA0OC4xODc0IDI1LjYxIDQ3LjY3NDEgMjUuNjFaTTUxLjc2MTggMjUuNVYyNC4yNTdINTMuODI5OFYyMC42OTNINTEuOTgxOFYxOS40NUg1NS4yMDQ4VjI0LjI1N0g1Ny4wNjM4VjI1LjVINTEuNzYxOFpNNTQuNDIzOCAxOC40MzhDNTQuMTQ1MSAxOC40MzggNTMuOTI1MSAxOC4zNjgzIDUzLjc2MzggMTguMjI5QzUzLjYwMjQgMTguMDgyMyA1My41MjE4IDE3Ljg4OCA1My41MjE4IDE3LjY0NkM1My41MjE4IDE3LjQwNCA1My42MDI0IDE3LjIxMzMgNTMuNzYzOCAxNy4wNzRDNTMuOTI1MSAxNi45MjczIDU0LjE0NTEgMTYuODU0IDU0LjQyMzggMTYuODU0QzU0LjcwMjQgMTYuODU0IDU0LjkyMjQgMTYuOTI3MyA1NS4wODM4IDE3LjA3NEM1NS4yNDUxIDE3LjIxMzMgNTUuMzI1OCAxNy40MDQgNTUuMzI1OCAxNy42NDZDNTUuMzI1OCAxNy44ODggNTUuMjQ1MSAxOC4wODIzIDU1LjA4MzggMTguMjI5QzU0LjkyMjQgMTguMzY4MyA1NC43MDI0IDE4LjQzOCA1NC40MjM4IDE4LjQzOFpNNjEuNDI2NSAyNS41QzYwLjg2MTggMjUuNSA2MC40MTA4IDI1LjMzODcgNjAuMDczNSAyNS4wMTZDNTkuNzQzNSAyNC42ODYgNTkuNTc4NSAyNC4yNDIzIDU5LjU3ODUgMjMuNjg1VjIwLjY5M0g1Ny45MDY1VjE5LjQ1SDU5LjU3ODVWMTcuNzQ1SDYwLjk2NDVWMTkuNDVINjMuMzczNVYyMC42OTNINjAuOTY0NVYyMy42NTJDNjAuOTY0NSAyMy44MjggNjEuMDEyMiAyMy45NzQ3IDYxLjEwNzUgMjQuMDkyQzYxLjIxMDIgMjQuMjAyIDYxLjM0OTUgMjQuMjU3IDYxLjUyNTUgMjQuMjU3SDYzLjMxODVWMjUuNUg2MS40MjY1Wk02NC45NjQyIDI1LjVWMTcuNDdINjYuMzM5MlYyMC43MjZINjguNDk1MlYxNy40N0g2OS44NzAyVjI1LjVINjguNDk1MlYyMS45NjlINjYuMzM5MlYyNS41SDY0Ljk2NDJaTTc0LjAxMjkgMjUuNjFDNzMuMjQyOSAyNS42MSA3Mi42Mzc5IDI1LjM5NzMgNzIuMTk3OSAyNC45NzJDNzEuNzU3OSAyNC41MzkzIDcxLjUzNzkgMjMuOTUyNyA3MS41Mzc5IDIzLjIxMlYxOS40NUg3Mi45MTI5VjIzLjIwMUM3Mi45MTI5IDIzLjU4MjMgNzMuMDA4MiAyMy44NzkzIDczLjE5ODkgMjQuMDkyQzczLjM4OTYgMjQuMzA0NyA3My42NjA5IDI0LjQxMSA3NC4wMTI5IDI0LjQxMUM3NC4zNTc2IDI0LjQxMSA3NC42MjUyIDI0LjMwNDcgNzQuODE1OSAyNC4wOTJDNzUuMDEzOSAyMy44NzkzIDc1LjExMjkgMjMuNTgyMyA3NS4xMTI5IDIzLjIwMVYxOS40NUg3Ni40ODc5VjIzLjIxMkM3Ni40ODc5IDIzLjk1MjcgNzYuMjY0MiAyNC41MzkzIDc1LjgxNjkgMjQuOTcyQzc1LjM2OTYgMjUuMzk3MyA3NC43NjgyIDI1LjYxIDc0LjAxMjkgMjUuNjFaTTgxLjE1ODYgMjUuNjFDODAuNzMzMyAyNS42MSA4MC4zNzc2IDI1LjUwMzcgODAuMDkxNiAyNS4yOTFDNzkuODA1NiAyNS4wNzgzIDc5LjYwNzYgMjQuNzgxMyA3OS40OTc2IDI0LjRWMjUuNUg3OC4xNTU2VjE3LjQ3SDc5LjUzMDZWMTkuMTY0TDc5LjQ4NjYgMjAuNTVDNzkuNjAzOSAyMC4xNjg3IDc5LjgwNTYgMTkuODcxNyA4MC4wOTE2IDE5LjY1OUM4MC4zODQ5IDE5LjQ0NjMgODAuNzQwNiAxOS4zNCA4MS4xNTg2IDE5LjM0QzgxLjc1MjYgMTkuMzQgODIuMjI5MyAxOS41NDkgODIuNTg4NiAxOS45NjdDODIuOTQ3OSAyMC4zODUgODMuMTI3NiAyMC45NDk3IDgzLjEyNzYgMjEuNjYxVjIzLjNDODMuMTI3NiAyNC4wMDQgODIuOTQ0MyAyNC41NjUgODIuNTc3NiAyNC45ODNDODIuMjE4MyAyNS40MDEgODEuNzQ1MyAyNS42MSA4MS4xNTg2IDI1LjYxWk04MC42NDE2IDI0LjQyMkM4MC45OTM2IDI0LjQyMiA4MS4yNjQ5IDI0LjMyNjcgODEuNDU1NiAyNC4xMzZDODEuNjUzNiAyMy45NDUzIDgxLjc1MjYgMjMuNjUyIDgxLjc1MjYgMjMuMjU2VjIxLjY5NEM4MS43NTI2IDIxLjI5OCA4MS42NTM2IDIxLjAwNDcgODEuNDU1NiAyMC44MTRDODEuMjY0OSAyMC42MjMzIDgwLjk5MzYgMjAuNTI4IDgwLjY0MTYgMjAuNTI4QzgwLjI4OTYgMjAuNTI4IDgwLjAxNDYgMjAuNjM0MyA3OS44MTY2IDIwLjg0N0M3OS42MjU5IDIxLjA1OTcgNzkuNTMwNiAyMS4zNjAzIDc5LjUzMDYgMjEuNzQ5VjIzLjIwMUM3OS41MzA2IDIzLjU4OTcgNzkuNjI1OSAyMy44OTAzIDc5LjgxNjYgMjQuMTAzQzgwLjAxNDYgMjQuMzE1NyA4MC4yODk2IDI0LjQyMiA4MC42NDE2IDI0LjQyMlpNOTAuODg1IDI1LjVMOTIuOTA5IDE3LjQ3SDk0LjY4TDk2LjcxNSAyNS41SDk1LjMwN0w5NC44NjcgMjMuNTUzSDkyLjczM0w5Mi4yOTMgMjUuNUg5MC44ODVaTTkyLjk4NiAyMi40MzFIOTQuNjE0TDk0LjEzIDIwLjI3NUM5NC4wNDkzIDE5LjkxNTcgOTMuOTc5NyAxOS41OTMgOTMuOTIxIDE5LjMwN0M5My44NjIzIDE5LjAxMzcgOTMuODIyIDE4LjgwMSA5My44IDE4LjY2OUM5My43NzggMTguODAxIDkzLjczNzcgMTkuMDEzNyA5My42NzkgMTkuMzA3QzkzLjYyMDMgMTkuNTkzIDkzLjU1MDcgMTkuOTEyIDkzLjQ3IDIwLjI2NEw5Mi45ODYgMjIuNDMxWk0xMDAuNDk1IDI1LjYxQzk5Ljk3NCAyNS42MSA5OS41MTk0IDI1LjUxNDcgOTkuMTMwNyAyNS4zMjRDOTguNzQ5NCAyNS4xMjYgOTguNDUyNCAyNC44NTEgOTguMjM5NyAyNC40OTlDOTguMDI3IDI0LjEzOTcgOTcuOTIwNyAyMy43MTggOTcuOTIwNyAyMy4yMzRWMjEuNzE2Qzk3LjkyMDcgMjEuMjMyIDk4LjAyNyAyMC44MTQgOTguMjM5NyAyMC40NjJDOTguNDUyNCAyMC4xMDI3IDk4Ljc0OTQgMTkuODI3NyA5OS4xMzA3IDE5LjYzN0M5OS41MTk0IDE5LjQzOSA5OS45NzQgMTkuMzQgMTAwLjQ5NSAxOS4zNEMxMDEuMjUgMTkuMzQgMTAxLjg1NSAxOS41MzggMTAyLjMxIDE5LjkzNEMxMDIuNzcyIDIwLjMyMjcgMTAzLjAxNCAyMC44NTQzIDEwMy4wMzYgMjEuNTI5SDEwMS42ODNDMTAxLjY2MSAyMS4yMTM3IDEwMS41NCAyMC45NzE3IDEwMS4zMiAyMC44MDNDMTAxLjEwNyAyMC42MjcgMTAwLjgzMiAyMC41MzkgMTAwLjQ5NSAyMC41MzlDMTAwLjEyMSAyMC41MzkgOTkuODI3NCAyMC42NDE3IDk5LjYxNDcgMjAuODQ3Qzk5LjQwMiAyMS4wNDUgOTkuMjk1NyAyMS4zMzEgOTkuMjk1NyAyMS43MDVWMjMuMjM0Qzk5LjI5NTcgMjMuNjA4IDk5LjQwMiAyMy44OTc3IDk5LjYxNDcgMjQuMTAzQzk5LjgyNzQgMjQuMzA4MyAxMDAuMTIxIDI0LjQxMSAxMDAuNDk1IDI0LjQxMUMxMDAuODM5IDI0LjQxMSAxMDEuMTE4IDI0LjMyNjcgMTAxLjMzMSAyNC4xNThDMTAxLjU0MyAyMy45ODIgMTAxLjY2MSAyMy43MzYzIDEwMS42ODMgMjMuNDIxSDEwMy4wMzZDMTAzLjAxNCAyNC4wOTU3IDEwMi43NzIgMjQuNjMxIDEwMi4zMSAyNS4wMjdDMTAxLjg1NSAyNS40MTU3IDEwMS4yNSAyNS42MSAxMDAuNDk1IDI1LjYxWk0xMDcuNTk2IDI1LjVDMTA3LjAzMiAyNS41IDEwNi41ODEgMjUuMzM4NyAxMDYuMjQzIDI1LjAxNkMxMDUuOTEzIDI0LjY4NiAxMDUuNzQ4IDI0LjI0MjMgMTA1Ljc0OCAyMy42ODVWMjAuNjkzSDEwNC4wNzZWMTkuNDVIMTA1Ljc0OFYxNy43NDVIMTA3LjEzNFYxOS40NUgxMDkuNTQzVjIwLjY5M0gxMDcuMTM0VjIzLjY1MkMxMDcuMTM0IDIzLjgyOCAxMDcuMTgyIDIzLjk3NDcgMTA3LjI3NyAyNC4wOTJDMTA3LjM4IDI0LjIwMiAxMDcuNTE5IDI0LjI1NyAxMDcuNjk1IDI0LjI1N0gxMDkuNDg4VjI1LjVIMTA3LjU5NlpNMTExLjEyMyAyNS41VjI0LjI1N0gxMTMuMTkxVjIwLjY5M0gxMTEuMzQzVjE5LjQ1SDExNC41NjZWMjQuMjU3SDExNi40MjVWMjUuNUgxMTEuMTIzWk0xMTMuNzg1IDE4LjQzOEMxMTMuNTA2IDE4LjQzOCAxMTMuMjg2IDE4LjM2ODMgMTEzLjEyNSAxOC4yMjlDMTEyLjk2NCAxOC4wODIzIDExMi44ODMgMTcuODg4IDExMi44ODMgMTcuNjQ2QzExMi44ODMgMTcuNDA0IDExMi45NjQgMTcuMjEzMyAxMTMuMTI1IDE3LjA3NEMxMTMuMjg2IDE2LjkyNzMgMTEzLjUwNiAxNi44NTQgMTEzLjc4NSAxNi44NTRDMTE0LjA2NCAxNi44NTQgMTE0LjI4NCAxNi45MjczIDExNC40NDUgMTcuMDc0QzExNC42MDYgMTcuMjEzMyAxMTQuNjg3IDE3LjQwNCAxMTQuNjg3IDE3LjY0NkMxMTQuNjg3IDE3Ljg4OCAxMTQuNjA2IDE4LjA4MjMgMTE0LjQ0NSAxOC4yMjlDMTE0LjI4NCAxOC4zNjgzIDExNC4wNjQgMTguNDM4IDExMy43ODUgMTguNDM4Wk0xMjAuMTgzIDI1LjU5OUMxMTkuNDA1IDI1LjU5OSAxMTguNzg5IDI1LjM4MjcgMTE4LjMzNSAyNC45NUMxMTcuODggMjQuNTEgMTE3LjY1MyAyMy45MTk3IDExNy42NTMgMjMuMTc5VjIxLjc3MUMxMTcuNjUzIDIxLjAyMyAxMTcuODggMjAuNDMyNyAxMTguMzM1IDIwQzExOC43ODkgMTkuNTY3MyAxMTkuNDA1IDE5LjM1MSAxMjAuMTgzIDE5LjM1MUMxMjAuOTYgMTkuMzUxIDEyMS41NzYgMTkuNTY3MyAxMjIuMDMxIDIwQzEyMi40ODUgMjAuNDMyNyAxMjIuNzEzIDIxLjAyMyAxMjIuNzEzIDIxLjc3MVYyMy4xNzlDMTIyLjcxMyAyMy45MTk3IDEyMi40ODUgMjQuNTEgMTIyLjAzMSAyNC45NUMxMjEuNTc2IDI1LjM4MjcgMTIwLjk2IDI1LjU5OSAxMjAuMTgzIDI1LjU5OVpNMTIwLjE4MyAyNC40QzEyMC41NDkgMjQuNCAxMjAuODMyIDI0LjMwMSAxMjEuMDMgMjQuMTAzQzEyMS4yMzUgMjMuODk3NyAxMjEuMzM4IDIzLjYwNDMgMTIxLjMzOCAyMy4yMjNWMjEuNzI3QzEyMS4zMzggMjEuMzQ1NyAxMjEuMjM1IDIxLjA1NiAxMjEuMDMgMjAuODU4QzEyMC44MzIgMjAuNjUyNyAxMjAuNTQ5IDIwLjU1IDEyMC4xODMgMjAuNTVDMTE5LjgxNiAyMC41NSAxMTkuNTMgMjAuNjUyNyAxMTkuMzI1IDIwLjg1OEMxMTkuMTI3IDIxLjA1NiAxMTkuMDI4IDIxLjM0NTcgMTE5LjAyOCAyMS43MjdWMjMuMjIzQzExOS4wMjggMjMuNjA0MyAxMTkuMTI3IDIzLjg5NzcgMTE5LjMyNSAyNC4xMDNDMTE5LjUzIDI0LjMwMSAxMTkuODE2IDI0LjQgMTIwLjE4MyAyNC40Wk0xMjQuMzI2IDI1LjVWMTkuNDVIMTI1LjY2OFYyMC41ODNDMTI1Ljc0MSAyMC4yMDE3IDEyNS45MjEgMTkuOTAxIDEyNi4yMDcgMTkuNjgxQzEyNi40OTMgMTkuNDUzNyAxMjYuODU2IDE5LjM0IDEyNy4yOTYgMTkuMzRDMTI3Ljg5IDE5LjM0IDEyOC4zNjMgMTkuNTM4IDEyOC43MTUgMTkuOTM0QzEyOS4wNzQgMjAuMzMgMTI5LjI1NCAyMC44NjE3IDEyOS4yNTQgMjEuNTI5VjI1LjVIMTI3Ljg3OVYyMS42OTRDMTI3Ljg3OSAyMS4zMiAxMjcuNzggMjEuMDM0IDEyNy41ODIgMjAuODM2QzEyNy4zOTEgMjAuNjMwNyAxMjcuMTMxIDIwLjUyOCAxMjYuODAxIDIwLjUyOEMxMjYuNDU2IDIwLjUyOCAxMjYuMTg1IDIwLjYzMDcgMTI1Ljk4NyAyMC44MzZDMTI1Ljc5NiAyMS4wNDEzIDEyNS43MDEgMjEuMzM0NyAxMjUuNzAxIDIxLjcxNlYyNS41SDEyNC4zMjZaTTEzMy4xMjEgMjUuNTk5QzEzMi40MDMgMjUuNTk5IDEzMS44MzQgMjUuNDM3NyAxMzEuNDE2IDI1LjExNUMxMzAuOTk4IDI0Ljc4NSAxMzAuNzg5IDI0LjM0MTMgMTMwLjc4OSAyMy43ODRIMTMyLjE0MkMxMzIuMTQyIDI0LjAxODcgMTMyLjIyNyAyNC4xOTgzIDEzMi4zOTUgMjQuMzIzQzEzMi41NzEgMjQuNDQ3NyAxMzIuODEzIDI0LjUxIDEzMy4xMjEgMjQuNTFIMTMzLjYwNUMxMzMuOTM1IDI0LjUxIDEzNC4xODggMjQuNDQ3NyAxMzQuMzY0IDI0LjMyM0MxMzQuNTQ4IDI0LjE5ODMgMTM0LjYzOSAyNC4wMTg3IDEzNC42MzkgMjMuNzg0QzEzNC42MzkgMjMuNTY0IDEzNC41NzcgMjMuNDAyNyAxMzQuNDUyIDIzLjNDMTM0LjMyOCAyMy4xOSAxMzQuMTM3IDIzLjExNjcgMTMzLjg4IDIzLjA4TDEzMi4zNzMgMjIuODgyQzEzMS44ODkgMjIuODE2IDEzMS41MTUgMjIuNjI5IDEzMS4yNTEgMjIuMzIxQzEzMC45OTUgMjIuMDEzIDEzMC44NjYgMjEuNjEzMyAxMzAuODY2IDIxLjEyMkMxMzAuODY2IDIwLjU1IDEzMS4wNTcgMjAuMTEzNyAxMzEuNDM4IDE5LjgxM0MxMzEuODIgMTkuNTA1IDEzMi4zNyAxOS4zNTEgMTMzLjA4OCAxOS4zNTFIMTMzLjU5NEMxMzQuMjY5IDE5LjM1MSAxMzQuODEyIDE5LjUwNSAxMzUuMjIyIDE5LjgxM0MxMzUuNjMzIDIwLjEyMSAxMzUuODQ2IDIwLjUzMTcgMTM1Ljg2IDIxLjA0NUgxMzQuNDk2QzEzNC40ODkgMjAuODU0MyAxMzQuNDA1IDIwLjcwNCAxMzQuMjQzIDIwLjU5NEMxMzQuMDgyIDIwLjQ3NjcgMTMzLjg2NiAyMC40MTggMTMzLjU5NCAyMC40MThIMTMzLjA4OEMxMzIuNzk1IDIwLjQxOCAxMzIuNTcxIDIwLjQ4MDMgMTMyLjQxNyAyMC42MDVDMTMyLjI2MyAyMC43MjIzIDEzMi4xODYgMjAuODgzNyAxMzIuMTg2IDIxLjA4OUMxMzIuMTg2IDIxLjI3MjMgMTMyLjI0MSAyMS40MDggMTMyLjM1MSAyMS40OTZDMTMyLjQ2OSAyMS41ODQgMTMyLjYzNyAyMS42MzkgMTMyLjg1NyAyMS42NjFMMTM0LjI3NiAyMS44NTlDMTM0LjgzNCAyMS45MjUgMTM1LjI1MiAyMi4xMjMgMTM1LjUzIDIyLjQ1M0MxMzUuODE2IDIyLjc3NTcgMTM1Ljk1OSAyMy4yMTIgMTM1Ljk1OSAyMy43NjJDMTM1Ljk1OSAyNC4zNDg3IDEzNS43NTggMjQuODAzMyAxMzUuMzU0IDI1LjEyNkMxMzQuOTU4IDI1LjQ0MTMgMTM0LjM3NSAyNS41OTkgMTMzLjYwNSAyNS41OTlIMTMzLjEyMVoiLz4mI3hhOzxkZWZzPiYjeGE7PGNsaXBQYXRoIGlkPSJjbGlwMF8xNDNfNTI1NCI+JiN4YTs8cmVjdCB0cmFuc2Zvcm09InRyYW5zbGF0ZSgxMiAxMikiIGZpbGw9IndoaXRlIiBoZWlnaHQ9IjIwIiB3aWR0aD0iMjAiLz4mI3hhOzwvY2xpcFBhdGg+JiN4YTs8L2RlZnM+JiN4YTs8L3N2Zz4=;" vertex="1" parent="1">
          <mxGeometry x="539.0009301757813" y="147.99526715959826" width="149" height="44" as="geometry" />
        </mxCell>
        <mxCell id="4B-1JcJdaMHV0bxuoDUO-43" value="" style="shape=image;verticalLabelPosition=bottom;labelBackgroundColor=default;verticalAlign=top;aspect=fixed;imageAspect=0;image=data:image/svg+xml,PHN2ZyB4bWxucz0iaHR0cDovL3d3dy53My5vcmcvMjAwMC9zdmciIGZpbGw9Im5vbmUiIHZpZXdCb3g9IjAgMCAxMjIgNDQiIGhlaWdodD0iNDQiIHdpZHRoPSIxMjIiPiYjeGE7PHJlY3QgZmlsbD0iI0ZDRkNGQyIgcng9IjMiIGhlaWdodD0iNDIiIHdpZHRoPSIxMjAiIHk9IjEiIHg9IjEiLz4mI3hhOzxyZWN0IHN0cm9rZS13aWR0aD0iMiIgc3Ryb2tlPSJibGFjayIgcng9IjMiIGhlaWdodD0iNDIiIHdpZHRoPSIxMjAiIHk9IjEiIHg9IjEiLz4mI3hhOzxwYXRoIGZpbGw9ImJsYWNrIiBkPSJNMTMuODc1IDE3QzEzLjg3NSAxNi4zMzcgMTQuMTM4NCAxNS43MDExIDE0LjYwNzIgMTUuMjMyMkMxNS4wNzYxIDE0Ljc2MzQgMTUuNzEyIDE0LjUgMTYuMzc1IDE0LjVIMjcuNjI1QzI4LjI4OCAxNC41IDI4LjkyMzkgMTQuNzYzNCAyOS4zOTI4IDE1LjIzMjJDMjkuODYxNiAxNS43MDExIDMwLjEyNSAxNi4zMzcgMzAuMTI1IDE3VjI3QzMwLjEyNSAyNy42NjMgMjkuODYxNiAyOC4yOTg5IDI5LjM5MjggMjguNzY3OEMyOC45MjM5IDI5LjIzNjYgMjguMjg4IDI5LjUgMjcuNjI1IDI5LjVIMTYuMzc1QzE1LjcxMiAyOS41IDE1LjA3NjEgMjkuMjM2NiAxNC42MDcyIDI4Ljc2NzhDMTQuMTM4NCAyOC4yOTg5IDEzLjg3NSAyNy42NjMgMTMuODc1IDI3VjE3Wk0xNy4xODMzIDE3LjgwODNDMTcuMzAwNSAxNy42OTEzIDE3LjQ1OTQgMTcuNjI1NSAxNy42MjUgMTcuNjI1NUMxNy43OTA2IDE3LjYyNTUgMTcuOTQ5NSAxNy42OTEzIDE4LjA2NjcgMTcuODA4M0wxOS45NDE3IDE5LjY4MzNDMjAuMDU4NyAxOS44MDA1IDIwLjEyNDQgMTkuOTU5NCAyMC4xMjQ0IDIwLjEyNUMyMC4xMjQ0IDIwLjI5MDYgMjAuMDU4NyAyMC40NDk1IDE5Ljk0MTcgMjAuNTY2N0wxOC4wNjY3IDIyLjQ0MTdDMTcuOTQ4MiAyMi41NTIxIDE3Ljc5MTUgMjIuNjEyMiAxNy42Mjk2IDIyLjYwOTNDMTcuNDY3NiAyMi42MDY1IDE3LjMxMzIgMjIuNTQwOSAxNy4xOTg2IDIyLjQyNjRDMTcuMDg0MSAyMi4zMTE4IDE3LjAxODUgMjIuMTU3NCAxNy4wMTU3IDIxLjk5NTRDMTcuMDEyOCAyMS44MzM1IDE3LjA3MjkgMjEuNjc2OCAxNy4xODMzIDIxLjU1ODNMMTguNjE2NyAyMC4xMjVMMTcuMTgzMyAxOC42OTE3QzE3LjA2NjMgMTguNTc0NSAxNy4wMDA1IDE4LjQxNTYgMTcuMDAwNSAxOC4yNUMxNy4wMDA1IDE4LjA4NDQgMTcuMDY2MyAxNy45MjU1IDE3LjE4MzMgMTcuODA4M1pNMjAuNzUgMjEuMzc1QzIwLjU4NDIgMjEuMzc1IDIwLjQyNTMgMjEuNDQwOCAyMC4zMDgxIDIxLjU1ODFDMjAuMTkwOCAyMS42NzUzIDIwLjEyNSAyMS44MzQyIDIwLjEyNSAyMkMyMC4xMjUgMjIuMTY1OCAyMC4xOTA4IDIyLjMyNDcgMjAuMzA4MSAyMi40NDE5QzIwLjQyNTMgMjIuNTU5MiAyMC41ODQyIDIyLjYyNSAyMC43NSAyMi42MjVIMjMuMjVDMjMuNDE1OCAyMi42MjUgMjMuNTc0NyAyMi41NTkyIDIzLjY5MTkgMjIuNDQxOUMyMy44MDkyIDIyLjMyNDcgMjMuODc1IDIyLjE2NTggMjMuODc1IDIyQzIzLjg3NSAyMS44MzQyIDIzLjgwOTIgMjEuNjc1MyAyMy42OTE5IDIxLjU1ODFDMjMuNTc0NyAyMS40NDA4IDIzLjQxNTggMjEuMzc1IDIzLjI1IDIxLjM3NUgyMC43NVoiIGNsaXAtcnVsZT0iZXZlbm9kZCIgZmlsbC1ydWxlPSJldmVub2RkIi8+JiN4YTs8cGF0aCBmaWxsPSJibGFjayIgZD0iTTQ2LjQzMDUgMjUuNUw0NC40MDY1IDE3LjQ3SDQ1LjgyNTVMNDcuMDQ2NSAyMi43MDZDNDcuMTEyNSAyMi45NjI3IDQ3LjE3MTIgMjMuMjQxMyA0Ny4yMjI1IDIzLjU0MkM0Ny4yODEyIDIzLjgzNTMgNDcuMzI1MiAyNC4wNyA0Ny4zNTQ1IDI0LjI0NkM0Ny4zODM4IDI0LjA3IDQ3LjQyNDIgMjMuODM1MyA0Ny40NzU1IDIzLjU0MkM0Ny41MzQyIDIzLjI0MTMgNDcuNTk2NSAyMi45NTkgNDcuNjYyNSAyMi42OTVMNDguODM5NSAxNy40N0g1MC4yMzY1TDQ4LjIxMjUgMjUuNUg0Ni40MzA1Wk01My45MjgyIDI1LjYxQzUzLjQxNDkgMjUuNjEgNTIuOTY3NSAyNS41MTEgNTIuNTg2MiAyNS4zMTNDNTIuMjA0OSAyNS4xMTUgNTEuOTA3OSAyNC44MzYzIDUxLjY5NTIgMjQuNDc3QzUxLjQ4OTkgMjQuMTEwMyA1MS4zODcyIDIzLjY4MTMgNTEuMzg3MiAyMy4xOVYyMS43NkM1MS4zODcyIDIxLjI2ODcgNTEuNDg5OSAyMC44NDMzIDUxLjY5NTIgMjAuNDg0QzUxLjkwNzkgMjAuMTE3MyA1Mi4yMDQ5IDE5LjgzNSA1Mi41ODYyIDE5LjYzN0M1Mi45Njc1IDE5LjQzOSA1My40MTQ5IDE5LjM0IDUzLjkyODIgMTkuMzRDNTQuNDM0MiAxOS4zNCA1NC44NzQyIDE5LjQzOSA1NS4yNDgyIDE5LjYzN0M1NS42Mjk1IDE5LjgzNSA1NS45MjI5IDIwLjExMzcgNTYuMTI4MiAyMC40NzNDNTYuMzQwOSAyMC44MjUgNTYuNDQ3MiAyMS4yMzkzIDU2LjQ0NzIgMjEuNzE2VjIyLjgxNkg1Mi43MDcyVjIzLjIzNEM1Mi43MDcyIDIzLjY0NDcgNTIuODEzNSAyMy45NTYzIDUzLjAyNjIgMjQuMTY5QzUzLjIzODkgMjQuMzc0MyA1My41Mzk1IDI0LjQ3NyA1My45MjgyIDI0LjQ3N0M1NC4yMTQyIDI0LjQ3NyA1NC40NTYyIDI0LjQyOTMgNTQuNjU0MiAyNC4zMzRDNTQuODU5NSAyNC4yMzEzIDU0Ljk4MDUgMjQuMDg0NyA1NS4wMTcyIDIzLjg5NEg1Ni4zODEyQzU2LjI4NTkgMjQuNDE0NyA1Ni4wMTQ1IDI0LjgzMjcgNTUuNTY3MiAyNS4xNDhDNTUuMTE5OSAyNS40NTYgNTQuNTczNSAyNS42MSA1My45MjgyIDI1LjYxWk01Mi43MDcyIDIxLjcxNlYyMS45MjVMNTUuMTI3MiAyMS45MTRWMjEuNzA1QzU1LjEyNzIgMjEuMjg3IDU1LjAyNDUgMjAuOTY0MyA1NC44MTkyIDIwLjczN0M1NC42MTM5IDIwLjUwOTcgNTQuMzE2OSAyMC4zOTYgNTMuOTI4MiAyMC4zOTZDNTMuNTI0OSAyMC4zOTYgNTMuMjIwNSAyMC41MTMzIDUzLjAxNTIgMjAuNzQ4QzUyLjgwOTkgMjAuOTc1MyA1Mi43MDcyIDIxLjI5OCA1Mi43MDcyIDIxLjcxNlpNNTguMjc5OSAyNS41VjE5LjQ1SDU5LjYyMTlWMjAuNjI3QzU5LjY5NTIgMjAuMjMxIDU5Ljg3NDkgMTkuOTE5MyA2MC4xNjA5IDE5LjY5MkM2MC40NTQyIDE5LjQ1NzMgNjAuODMxOSAxOS4zNCA2MS4yOTM5IDE5LjM0QzYxLjkwOTkgMTkuMzQgNjIuMzkwMiAxOS41MzggNjIuNzM0OSAxOS45MzRDNjMuMDc5NiAyMC4zMyA2My4yNTE5IDIwLjg4MzcgNjMuMjUxOSAyMS41OTVWMjIuMTY3SDYxLjg3NjlWMjEuNjYxQzYxLjg3NjkgMjEuMjk0MyA2MS43ODE2IDIxLjAxNTcgNjEuNTkwOSAyMC44MjVDNjEuNDAwMiAyMC42MjcgNjEuMTI4OSAyMC41MjggNjAuNzc2OSAyMC41MjhDNjAuNDEwMiAyMC41MjggNjAuMTMxNiAyMC42MzggNTkuOTQwOSAyMC44NThDNTkuNzUwMiAyMS4wNzggNTkuNjU0OSAyMS4zODk3IDU5LjY1NDkgMjEuNzkzVjI1LjVINTguMjc5OVpNNjcuMjA3NiAyNS42MUM2Ni42ODY5IDI1LjYxIDY2LjIzMjMgMjUuNTE0NyA2NS44NDM2IDI1LjMyNEM2NS40NjIzIDI1LjEyNiA2NS4xNjUzIDI0Ljg1MSA2NC45NTI2IDI0LjQ5OUM2NC43Mzk5IDI0LjEzOTcgNjQuNjMzNiAyMy43MTggNjQuNjMzNiAyMy4yMzRWMjEuNzE2QzY0LjYzMzYgMjEuMjMyIDY0LjczOTkgMjAuODE0IDY0Ljk1MjYgMjAuNDYyQzY1LjE2NTMgMjAuMTAyNyA2NS40NjIzIDE5LjgyNzcgNjUuODQzNiAxOS42MzdDNjYuMjMyMyAxOS40MzkgNjYuNjg2OSAxOS4zNCA2Ny4yMDc2IDE5LjM0QzY3Ljk2MjkgMTkuMzQgNjguNTY3OSAxOS41MzggNjkuMDIyNiAxOS45MzRDNjkuNDg0NiAyMC4zMjI3IDY5LjcyNjYgMjAuODU0MyA2OS43NDg2IDIxLjUyOUg2OC4zOTU2QzY4LjM3MzYgMjEuMjEzNyA2OC4yNTI2IDIwLjk3MTcgNjguMDMyNiAyMC44MDNDNjcuODE5OSAyMC42MjcgNjcuNTQ0OSAyMC41MzkgNjcuMjA3NiAyMC41MzlDNjYuODMzNiAyMC41MzkgNjYuNTQwMyAyMC42NDE3IDY2LjMyNzYgMjAuODQ3QzY2LjExNDkgMjEuMDQ1IDY2LjAwODYgMjEuMzMxIDY2LjAwODYgMjEuNzA1VjIzLjIzNEM2Ni4wMDg2IDIzLjYwOCA2Ni4xMTQ5IDIzLjg5NzcgNjYuMzI3NiAyNC4xMDNDNjYuNTQwMyAyNC4zMDgzIDY2LjgzMzYgMjQuNDExIDY3LjIwNzYgMjQuNDExQzY3LjU1MjMgMjQuNDExIDY3LjgzMDkgMjQuMzI2NyA2OC4wNDM2IDI0LjE1OEM2OC4yNTYzIDIzLjk4MiA2OC4zNzM2IDIzLjczNjMgNjguMzk1NiAyMy40MjFINjkuNzQ4NkM2OS43MjY2IDI0LjA5NTcgNjkuNDg0NiAyNC42MzEgNjkuMDIyNiAyNS4wMjdDNjguNTY3OSAyNS40MTU3IDY3Ljk2MjkgMjUuNjEgNjcuMjA3NiAyNS42MVpNNzMuNzE1MyAyNS42MUM3My4yMDIgMjUuNjEgNzIuNzU0NiAyNS41MTEgNzIuMzczMyAyNS4zMTNDNzEuOTkyIDI1LjExNSA3MS42OTUgMjQuODM2MyA3MS40ODIzIDI0LjQ3N0M3MS4yNzcgMjQuMTEwMyA3MS4xNzQzIDIzLjY4MTMgNzEuMTc0MyAyMy4xOVYyMS43NkM3MS4xNzQzIDIxLjI2ODcgNzEuMjc3IDIwLjg0MzMgNzEuNDgyMyAyMC40ODRDNzEuNjk1IDIwLjExNzMgNzEuOTkyIDE5LjgzNSA3Mi4zNzMzIDE5LjYzN0M3Mi43NTQ2IDE5LjQzOSA3My4yMDIgMTkuMzQgNzMuNzE1MyAxOS4zNEM3NC4yMjEzIDE5LjM0IDc0LjY2MTMgMTkuNDM5IDc1LjAzNTMgMTkuNjM3Qzc1LjQxNjYgMTkuODM1IDc1LjcxIDIwLjExMzcgNzUuOTE1MyAyMC40NzNDNzYuMTI4IDIwLjgyNSA3Ni4yMzQzIDIxLjIzOTMgNzYuMjM0MyAyMS43MTZWMjIuODE2SDcyLjQ5NDNWMjMuMjM0QzcyLjQ5NDMgMjMuNjQ0NyA3Mi42MDA2IDIzLjk1NjMgNzIuODEzMyAyNC4xNjlDNzMuMDI2IDI0LjM3NDMgNzMuMzI2NiAyNC40NzcgNzMuNzE1MyAyNC40NzdDNzQuMDAxMyAyNC40NzcgNzQuMjQzMyAyNC40MjkzIDc0LjQ0MTMgMjQuMzM0Qzc0LjY0NjYgMjQuMjMxMyA3NC43Njc2IDI0LjA4NDcgNzQuODA0MyAyMy44OTRINzYuMTY4M0M3Ni4wNzMgMjQuNDE0NyA3NS44MDE2IDI0LjgzMjcgNzUuMzU0MyAyNS4xNDhDNzQuOTA3IDI1LjQ1NiA3NC4zNjA2IDI1LjYxIDczLjcxNTMgMjUuNjFaTTcyLjQ5NDMgMjEuNzE2VjIxLjkyNUw3NC45MTQzIDIxLjkxNFYyMS43MDVDNzQuOTE0MyAyMS4yODcgNzQuODExNiAyMC45NjQzIDc0LjYwNjMgMjAuNzM3Qzc0LjQwMSAyMC41MDk3IDc0LjEwNCAyMC4zOTYgNzMuNzE1MyAyMC4zOTZDNzMuMzEyIDIwLjM5NiA3My4wMDc2IDIwLjUxMzMgNzIuODAyMyAyMC43NDhDNzIuNTk3IDIwLjk3NTMgNzIuNDk0MyAyMS4yOTggNzIuNDk0MyAyMS43MTZaTTgxLjI3OSAyNS41QzgwLjY3NzcgMjUuNSA4MC4xOTM3IDI1LjMyMDMgNzkuODI3IDI0Ljk2MUM3OS40Njc3IDI0LjYwMTcgNzkuMjg4IDI0LjEyODcgNzkuMjg4IDIzLjU0MlYxOC43MTNINzcuMjk3VjE3LjQ3SDgwLjY2M1YyMy41MDlDODAuNjYzIDIzLjczNjMgODAuNzI1MyAyMy45MTk3IDgwLjg1IDI0LjA1OUM4MC45ODIgMjQuMTkxIDgxLjE1OCAyNC4yNTcgODEuMzc4IDI0LjI1N0g4My4xNDlWMjUuNUg4MS4yNzlaTTkzLjU3OTQgMjUuNjFDOTMuMDU4NyAyNS42MSA5Mi42MDc3IDI1LjUxNDcgOTIuMjI2NCAyNS4zMjRDOTEuODQ1MSAyNS4xMjYgOTEuNTQ4MSAyNC44NTEgOTEuMzM1NCAyNC40OTlDOTEuMTMwMSAyNC4xMzk3IDkxLjAyNzQgMjMuNzE4IDkxLjAyNzQgMjMuMjM0VjE5LjczNkM5MS4wMjc0IDE5LjI1MiA5MS4xMzAxIDE4LjgzNCA5MS4zMzU0IDE4LjQ4MkM5MS41NDgxIDE4LjEyMjcgOTEuODQ1MSAxNy44NDc3IDkyLjIyNjQgMTcuNjU3QzkyLjYwNzcgMTcuNDU5IDkzLjA1ODcgMTcuMzYgOTMuNTc5NCAxNy4zNkM5NC4wOTI3IDE3LjM2IDk0LjU0MDEgMTcuNDU5IDk0LjkyMTQgMTcuNjU3Qzk1LjMwMjcgMTcuODQ3NyA5NS41OTk3IDE4LjEyMjcgOTUuODEyNCAxOC40ODJDOTYuMDI1MSAxOC44MzQgOTYuMTMxNCAxOS4yNTIgOTYuMTMxNCAxOS43MzZIOTQuNzQ1NEM5NC43NDU0IDE5LjM2MiA5NC42NDI3IDE5LjA3NiA5NC40Mzc0IDE4Ljg3OEM5NC4yMzk0IDE4LjY3MjcgOTMuOTUzNCAxOC41NyA5My41Nzk0IDE4LjU3QzkzLjIwNTQgMTguNTcgOTIuOTE1NyAxOC42NzI3IDkyLjcxMDQgMTguODc4QzkyLjUwNTEgMTkuMDc2IDkyLjQwMjQgMTkuMzYyIDkyLjQwMjQgMTkuNzM2VjIzLjIzNEM5Mi40MDI0IDIzLjYwOCA5Mi41MDUxIDIzLjg5NzcgOTIuNzEwNCAyNC4xMDNDOTIuOTE1NyAyNC4zMDEgOTMuMjA1NCAyNC40IDkzLjU3OTQgMjQuNEM5My45NTM0IDI0LjQgOTQuMjM5NCAyNC4zMDEgOTQuNDM3NCAyNC4xMDNDOTQuNjQyNyAyMy44OTc3IDk0Ljc0NTQgMjMuNjA4IDk0Ljc0NTQgMjMuMjM0SDk2LjEzMTRDOTYuMTMxNCAyMy43MTggOTYuMDI1MSAyNC4xMzk3IDk1LjgxMjQgMjQuNDk5Qzk1LjU5OTcgMjQuODUxIDk1LjMwMjcgMjUuMTI2IDk0LjkyMTQgMjUuMzI0Qzk0LjU0MDEgMjUuNTE0NyA5NC4wOTI3IDI1LjYxIDkzLjU3OTQgMjUuNjFaTTk4LjExODEgMjUuNVYxNy40N0g5OS40OTMxVjI0LjI1N0gxMDIuOTAzVjI1LjVIOTguMTE4MVpNMTA0LjM3MyAyNS41VjI0LjI1N0gxMDUuOTlWMTguNzEzSDEwNC4zNzNWMTcuNDdIMTA4Ljk5M1YxOC43MTNIMTA3LjM3NlYyNC4yNTdIMTA4Ljk5M1YyNS41SDEwNC4zNzNaIi8+JiN4YTs8L3N2Zz4=;" vertex="1" parent="1">
          <mxGeometry x="317.00093017578126" y="222.99526715959826" width="122" height="44" as="geometry" />
        </mxCell>
        <mxCell id="4B-1JcJdaMHV0bxuoDUO-44" value="" style="shape=image;verticalLabelPosition=bottom;labelBackgroundColor=default;verticalAlign=top;aspect=fixed;imageAspect=0;image=data:image/svg+xml,PHN2ZyB4bWxucz0iaHR0cDovL3d3dy53My5vcmcvMjAwMC9zdmciIGZpbGw9Im5vbmUiIHZpZXdCb3g9IjAgMCAxMjIgMjMiIGhlaWdodD0iMjMiIHdpZHRoPSIxMjIiPiYjeGE7PHJlY3QgZmlsbD0iI0ZDRkNGQyIgcng9IjMiIGhlaWdodD0iMjEiIHdpZHRoPSIxMjAiIHk9IjEiIHg9IjEiLz4mI3hhOzxyZWN0IHN0cm9rZS13aWR0aD0iMiIgc3Ryb2tlPSJibGFjayIgcng9IjMiIGhlaWdodD0iMjEiIHdpZHRoPSIxMjAiIHk9IjEiIHg9IjEiLz4mI3hhOzxwYXRoIGZpbGw9ImJsYWNrIiBkPSJNMTEuNTY3NCAxNS4xMUMxMS4wMjQ3IDE1LjExIDEwLjU0OCAxNS4wMTQ3IDEwLjEzNzQgMTQuODI0QzkuNzM0MDQgMTQuNjMzMyA5LjQxODcxIDE0LjM2MiA5LjE5MTM4IDE0LjAxQzguOTcxMzggMTMuNjUwNyA4Ljg2MTM4IDEzLjIyNTMgOC44NjEzOCAxMi43MzRIMTAuMjE0NEMxMC4yMTQ0IDEzLjA5MzMgMTAuMzM1NCAxMy4zNzkzIDEwLjU3NzQgMTMuNTkyQzEwLjgyNjcgMTMuODA0NyAxMS4xNTY3IDEzLjkxMSAxMS41Njc0IDEzLjkxMUMxMS45NjM0IDEzLjkxMSAxMi4yNzUgMTMuODA4MyAxMi41MDI0IDEzLjYwM0MxMi43MzcgMTMuMzkwMyAxMi44NTQ0IDEzLjEwOCAxMi44NTQ0IDEyLjc1NkMxMi44NTQ0IDEyLjQ5MiAxMi43Nzc0IDEyLjI2MSAxMi42MjM0IDEyLjA2M0MxMi40NzY3IDExLjg1NzcgMTIuMjY0IDExLjcxODMgMTEuOTg1NCAxMS42NDVMMTAuOTA3NCAxMS4zN0MxMC4zMjggMTEuMjIzMyA5Ljg2OTcxIDEwLjk0ODMgOS41MzIzOCAxMC41NDVDOS4xOTUwNCAxMC4xNDE3IDkuMDI2MzggOS42NjEzMyA5LjAyNjM4IDkuMTA0QzkuMDI2MzggOC40MjIgOS4yNTAwNCA3Ljg3OTMzIDkuNjk3MzggNy40NzZDMTAuMTQ0NyA3LjA2NTMzIDEwLjc0MjQgNi44NiAxMS40OTA0IDYuODZDMTEuOTk2NCA2Ljg2IDEyLjQzNjQgNi45NTE2NyAxMi44MTA0IDcuMTM1QzEzLjE5MTcgNy4zMTgzMyAxMy40ODUgNy41Nzg2NyAxMy42OTA0IDcuOTE2QzEzLjg5NTcgOC4yNDYgMTMuOTk4NCA4LjYzNDY3IDEzLjk5ODQgOS4wODJIMTIuNjU2NEMxMi42NTY0IDguNzc0IDEyLjU1IDguNTI0NjcgMTIuMzM3NCA4LjMzNEMxMi4xMjQ3IDguMTQzMzMgMTEuODQyNCA4LjA0OCAxMS40OTA0IDguMDQ4QzExLjE0NTcgOC4wNDggMTAuODcwNyA4LjE0MzMzIDEwLjY2NTQgOC4zMzRDMTAuNDY3NCA4LjUxNzMzIDEwLjM2ODQgOC43NTkzMyAxMC4zNjg0IDkuMDZDMTAuMzY4NCA5LjMwOTMzIDEwLjQzOCA5LjUxNDY3IDEwLjU3NzQgOS42NzZDMTAuNzI0IDkuODM3MzMgMTAuOTI1NyA5Ljk1NDY3IDExLjE4MjQgMTAuMDI4TDEyLjI5MzQgMTAuMzAzQzEyLjg4NzQgMTAuNDQ5NyAxMy4zNTMgMTAuNzQzIDEzLjY5MDQgMTEuMTgzQzE0LjAzNSAxMS42MjMgMTQuMjA3NCAxMi4xNDczIDE0LjIwNzQgMTIuNzU2QzE0LjIwNzQgMTMuMjMyNyAxNC4wOTc0IDEzLjY0NyAxMy44Nzc0IDEzLjk5OUMxMy42NjQ3IDE0LjM1MSAxMy4zNjA0IDE0LjYyNiAxMi45NjQ0IDE0LjgyNEMxMi41Njg0IDE1LjAxNDcgMTIuMTAyNyAxNS4xMSAxMS41Njc0IDE1LjExWk0xOC43MzUxIDE1QzE4LjE3MDQgMTUgMTcuNzE5NCAxNC44Mzg3IDE3LjM4MjEgMTQuNTE2QzE3LjA1MjEgMTQuMTg2IDE2Ljg4NzEgMTMuNzQyMyAxNi44ODcxIDEzLjE4NVYxMC4xOTNIMTUuMjE1MVY4Ljk1SDE2Ljg4NzFWNy4yNDVIMTguMjczMVY4Ljk1SDIwLjY4MjFWMTAuMTkzSDE4LjI3MzFWMTMuMTUyQzE4LjI3MzEgMTMuMzI4IDE4LjMyMDcgMTMuNDc0NyAxOC40MTYxIDEzLjU5MkMxOC41MTg3IDEzLjcwMiAxOC42NTgxIDEzLjc1NyAxOC44MzQxIDEzLjc1N0gyMC42MjcxVjE1SDE4LjczNTFaTTI0LjA1NDggMTUuMTFDMjMuNDM4OCAxNS4xMSAyMi45NTExIDE0LjkzNzcgMjIuNTkxOCAxNC41OTNDMjIuMjM5OCAxNC4yNDEgMjIuMDYzOCAxMy43ODI3IDIyLjA2MzggMTMuMjE4QzIyLjA2MzggMTIuNjMxMyAyMi4yNjU0IDEyLjE2NTcgMjIuNjY4OCAxMS44MjFDMjMuMDcyMSAxMS40NjkgMjMuNjI1OCAxMS4yOTMgMjQuMzI5OCAxMS4yOTNIMjUuODAzOFYxMC44NjRDMjUuODAzOCAxMC4yNTUzIDI1LjQ0ODEgOS45NTEgMjQuNzM2OCA5Ljk1MUMyNC40MTQxIDkuOTUxIDI0LjE1NzQgMTAuMDEzMyAyMy45NjY4IDEwLjEzOEMyMy43NzYxIDEwLjI2MjcgMjMuNjY5OCAxMC40Mzg3IDIzLjY0NzggMTAuNjY2SDIyLjMyNzhDMjIuMzU3MSAxMC4xMjMzIDIyLjU4NDQgOS42ODMzMyAyMy4wMDk4IDkuMzQ2QzIzLjQ0MjQgOS4wMDg2NyAyNC4wMjE4IDguODQgMjQuNzQ3OCA4Ljg0QzI1LjUxNzggOC44NCAyNi4xMTU0IDkuMDE5NjcgMjYuNTQwOCA5LjM3OUMyNi45NjYxIDkuNzM4MzMgMjcuMTc4OCAxMC4yNDQzIDI3LjE3ODggMTAuODk3VjE1SDI1LjgzNjhWMTMuODY3QzI1Ljc4NTQgMTQuMjU1NyAyNS42MDIxIDE0LjU2IDI1LjI4NjggMTQuNzhDMjQuOTcxNCAxNSAyNC41NjA4IDE1LjExIDI0LjA1NDggMTUuMTFaTTI0LjQ5NDggMTMuOTg4QzI0Ljg5ODEgMTMuOTg4IDI1LjIxNzEgMTMuODg5IDI1LjQ1MTggMTMuNjkxQzI1LjY4NjQgMTMuNDkzIDI1LjgwMzggMTMuMjI5IDI1LjgwMzggMTIuODk5VjEyLjE4NEgyNC4zOTU4QzI0LjA5NTEgMTIuMTg0IDIzLjg1NjggMTIuMjY4MyAyMy42ODA4IDEyLjQzN0MyMy41MDQ4IDEyLjYwNTcgMjMuNDE2OCAxMi44MjIgMjMuNDE2OCAxMy4wODZDMjMuNDE2OCAxMy4zNTczIDIzLjUwODQgMTMuNTc3MyAyMy42OTE4IDEzLjc0NkMyMy44ODI0IDEzLjkwNzMgMjQuMTUwMSAxMy45ODggMjQuNDk0OCAxMy45ODhaTTMxLjkyNjUgMTVDMzEuMzYxOCAxNSAzMC45MTA4IDE0LjgzODcgMzAuNTczNSAxNC41MTZDMzAuMjQzNSAxNC4xODYgMzAuMDc4NSAxMy43NDIzIDMwLjA3ODUgMTMuMTg1VjEwLjE5M0gyOC40MDY1VjguOTVIMzAuMDc4NVY3LjI0NUgzMS40NjQ1VjguOTVIMzMuODczNVYxMC4xOTNIMzEuNDY0NVYxMy4xNTJDMzEuNDY0NSAxMy4zMjggMzEuNTEyMiAxMy40NzQ3IDMxLjYwNzUgMTMuNTkyQzMxLjcxMDIgMTMuNzAyIDMxLjg0OTUgMTMuNzU3IDMyLjAyNTUgMTMuNzU3SDMzLjgxODVWMTVIMzEuOTI2NVpNMzUuNDUzMiAxNVYxMy43NTdIMzcuNTIxMlYxMC4xOTNIMzUuNjczMlY4Ljk1SDM4Ljg5NjJWMTMuNzU3SDQwLjc1NTJWMTVIMzUuNDUzMlpNMzguMTE1MiA3LjkzOEMzNy44MzY1IDcuOTM4IDM3LjYxNjUgNy44NjgzMyAzNy40NTUyIDcuNzI5QzM3LjI5MzkgNy41ODIzMyAzNy4yMTMyIDcuMzg4IDM3LjIxMzIgNy4xNDZDMzcuMjEzMiA2LjkwNCAzNy4yOTM5IDYuNzEzMzMgMzcuNDU1MiA2LjU3NEMzNy42MTY1IDYuNDI3MzMgMzcuODM2NSA2LjM1NCAzOC4xMTUyIDYuMzU0QzM4LjM5MzkgNi4zNTQgMzguNjEzOSA2LjQyNzMzIDM4Ljc3NTIgNi41NzRDMzguOTM2NSA2LjcxMzMzIDM5LjAxNzIgNi45MDQgMzkuMDE3MiA3LjE0NkMzOS4wMTcyIDcuMzg4IDM4LjkzNjUgNy41ODIzMyAzOC43NzUyIDcuNzI5QzM4LjYxMzkgNy44NjgzMyAzOC4zOTM5IDcuOTM4IDM4LjExNTIgNy45MzhaTTQ0LjYxMTkgMTUuMTFDNDQuMDkxMiAxNS4xMSA0My42MzY2IDE1LjAxNDcgNDMuMjQ3OSAxNC44MjRDNDIuODY2NiAxNC42MjYgNDIuNTY5NiAxNC4zNTEgNDIuMzU2OSAxMy45OTlDNDIuMTQ0MiAxMy42Mzk3IDQyLjAzNzkgMTMuMjE4IDQyLjAzNzkgMTIuNzM0VjExLjIxNkM0Mi4wMzc5IDEwLjczMiA0Mi4xNDQyIDEwLjMxNCA0Mi4zNTY5IDkuOTYyQzQyLjU2OTYgOS42MDI2NyA0Mi44NjY2IDkuMzI3NjcgNDMuMjQ3OSA5LjEzN0M0My42MzY2IDguOTM5IDQ0LjA5MTIgOC44NCA0NC42MTE5IDguODRDNDUuMzY3MiA4Ljg0IDQ1Ljk3MjIgOS4wMzggNDYuNDI2OSA5LjQzNEM0Ni44ODg5IDkuODIyNjcgNDcuMTMwOSAxMC4zNTQzIDQ3LjE1MjkgMTEuMDI5SDQ1Ljc5OTlDNDUuNzc3OSAxMC43MTM3IDQ1LjY1NjkgMTAuNDcxNyA0NS40MzY5IDEwLjMwM0M0NS4yMjQyIDEwLjEyNyA0NC45NDkyIDEwLjAzOSA0NC42MTE5IDEwLjAzOUM0NC4yMzc5IDEwLjAzOSA0My45NDQ2IDEwLjE0MTcgNDMuNzMxOSAxMC4zNDdDNDMuNTE5MiAxMC41NDUgNDMuNDEyOSAxMC44MzEgNDMuNDEyOSAxMS4yMDVWMTIuNzM0QzQzLjQxMjkgMTMuMTA4IDQzLjUxOTIgMTMuMzk3NyA0My43MzE5IDEzLjYwM0M0My45NDQ2IDEzLjgwODMgNDQuMjM3OSAxMy45MTEgNDQuNjExOSAxMy45MTFDNDQuOTU2NiAxMy45MTEgNDUuMjM1MiAxMy44MjY3IDQ1LjQ0NzkgMTMuNjU4QzQ1LjY2MDYgMTMuNDgyIDQ1Ljc3NzkgMTMuMjM2MyA0NS43OTk5IDEyLjkyMUg0Ny4xNTI5QzQ3LjEzMDkgMTMuNTk1NyA0Ni44ODg5IDE0LjEzMSA0Ni40MjY5IDE0LjUyN0M0NS45NzIyIDE0LjkxNTcgNDUuMzY3MiAxNS4xMSA0NC42MTE5IDE1LjExWk01NS40NzEzIDE1VjguOTVINTYuODEzM1YxMC4xMjdDNTYuODg2NiA5LjczMSA1Ny4wNjYzIDkuNDE5MzMgNTcuMzUyMyA5LjE5MkM1Ny42NDU2IDguOTU3MzMgNTguMDIzMyA4Ljg0IDU4LjQ4NTMgOC44NEM1OS4xMDEzIDguODQgNTkuNTgxNiA5LjAzOCA1OS45MjYzIDkuNDM0QzYwLjI3MSA5LjgzIDYwLjQ0MzMgMTAuMzgzNyA2MC40NDMzIDExLjA5NVYxMS42NjdINTkuMDY4M1YxMS4xNjFDNTkuMDY4MyAxMC43OTQzIDU4Ljk3MyAxMC41MTU3IDU4Ljc4MjMgMTAuMzI1QzU4LjU5MTYgMTAuMTI3IDU4LjMyMDMgMTAuMDI4IDU3Ljk2ODMgMTAuMDI4QzU3LjYwMTYgMTAuMDI4IDU3LjMyMyAxMC4xMzggNTcuMTMyMyAxMC4zNThDNTYuOTQxNiAxMC41NzggNTYuODQ2MyAxMC44ODk3IDU2Ljg0NjMgMTEuMjkzVjE1SDU1LjQ3MTNaTTY0LjMxMSAxNS4xMUM2My43OTc3IDE1LjExIDYzLjM1MDMgMTUuMDExIDYyLjk2OSAxNC44MTNDNjIuNTg3NyAxNC42MTUgNjIuMjkwNyAxNC4zMzYzIDYyLjA3OCAxMy45NzdDNjEuODcyNyAxMy42MTAzIDYxLjc3IDEzLjE4MTMgNjEuNzcgMTIuNjlWMTEuMjZDNjEuNzcgMTAuNzY4NyA2MS44NzI3IDEwLjM0MzMgNjIuMDc4IDkuOTg0QzYyLjI5MDcgOS42MTczMyA2Mi41ODc3IDkuMzM1IDYyLjk2OSA5LjEzN0M2My4zNTAzIDguOTM5IDYzLjc5NzcgOC44NCA2NC4zMTEgOC44NEM2NC44MTcgOC44NCA2NS4yNTcgOC45MzkgNjUuNjMxIDkuMTM3QzY2LjAxMjMgOS4zMzUgNjYuMzA1NyA5LjYxMzY3IDY2LjUxMSA5Ljk3M0M2Ni43MjM3IDEwLjMyNSA2Ni44MyAxMC43MzkzIDY2LjgzIDExLjIxNlYxMi4zMTZINjMuMDlWMTIuNzM0QzYzLjA5IDEzLjE0NDcgNjMuMTk2MyAxMy40NTYzIDYzLjQwOSAxMy42NjlDNjMuNjIxNyAxMy44NzQzIDYzLjkyMjMgMTMuOTc3IDY0LjMxMSAxMy45NzdDNjQuNTk3IDEzLjk3NyA2NC44MzkgMTMuOTI5MyA2NS4wMzcgMTMuODM0QzY1LjI0MjMgMTMuNzMxMyA2NS4zNjMzIDEzLjU4NDcgNjUuNCAxMy4zOTRINjYuNzY0QzY2LjY2ODcgMTMuOTE0NyA2Ni4zOTczIDE0LjMzMjcgNjUuOTUgMTQuNjQ4QzY1LjUwMjcgMTQuOTU2IDY0Ljk1NjMgMTUuMTEgNjQuMzExIDE1LjExWk02My4wOSAxMS4yMTZWMTEuNDI1TDY1LjUxIDExLjQxNFYxMS4yMDVDNjUuNTEgMTAuNzg3IDY1LjQwNzMgMTAuNDY0MyA2NS4yMDIgMTAuMjM3QzY0Ljk5NjcgMTAuMDA5NyA2NC42OTk3IDkuODk2IDY0LjMxMSA5Ljg5NkM2My45MDc3IDkuODk2IDYzLjYwMzMgMTAuMDEzMyA2My4zOTggMTAuMjQ4QzYzLjE5MjcgMTAuNDc1MyA2My4wOSAxMC43OTggNjMuMDkgMTEuMjE2Wk03MC42NDI3IDE1LjA5OUM2OS45MjQgMTUuMDk5IDY5LjM1NTcgMTQuOTM3NyA2OC45Mzc3IDE0LjYxNUM2OC41MTk3IDE0LjI4NSA2OC4zMTA3IDEzLjg0MTMgNjguMzEwNyAxMy4yODRINjkuNjYzN0M2OS42NjM3IDEzLjUxODcgNjkuNzQ4IDEzLjY5ODMgNjkuOTE2NyAxMy44MjNDNzAuMDkyNyAxMy45NDc3IDcwLjMzNDcgMTQuMDEgNzAuNjQyNyAxNC4wMUg3MS4xMjY3QzcxLjQ1NjcgMTQuMDEgNzEuNzA5NyAxMy45NDc3IDcxLjg4NTcgMTMuODIzQzcyLjA2OSAxMy42OTgzIDcyLjE2MDcgMTMuNTE4NyA3Mi4xNjA3IDEzLjI4NEM3Mi4xNjA3IDEzLjA2NCA3Mi4wOTg0IDEyLjkwMjcgNzEuOTczNyAxMi44QzcxLjg0OSAxMi42OSA3MS42NTg0IDEyLjYxNjcgNzEuNDAxNyAxMi41OEw2OS44OTQ3IDEyLjM4MkM2OS40MTA3IDEyLjMxNiA2OS4wMzY3IDEyLjEyOSA2OC43NzI3IDExLjgyMUM2OC41MTYgMTEuNTEzIDY4LjM4NzcgMTEuMTEzMyA2OC4zODc3IDEwLjYyMkM2OC4zODc3IDEwLjA1IDY4LjU3ODQgOS42MTM2NyA2OC45NTk3IDkuMzEzQzY5LjM0MSA5LjAwNSA2OS44OTEgOC44NTEgNzAuNjA5NyA4Ljg1MUg3MS4xMTU3QzcxLjc5MDQgOC44NTEgNzIuMzMzIDkuMDA1IDcyLjc0MzcgOS4zMTNDNzMuMTU0NCA5LjYyMSA3My4zNjcgMTAuMDMxNyA3My4zODE3IDEwLjU0NUg3Mi4wMTc3QzcyLjAxMDQgMTAuMzU0MyA3MS45MjYgMTAuMjA0IDcxLjc2NDcgMTAuMDk0QzcxLjYwMzQgOS45NzY2NyA3MS4zODcgOS45MTggNzEuMTE1NyA5LjkxOEg3MC42MDk3QzcwLjMxNjQgOS45MTggNzAuMDkyNyA5Ljk4MDMzIDY5LjkzODcgMTAuMTA1QzY5Ljc4NDcgMTAuMjIyMyA2OS43MDc3IDEwLjM4MzcgNjkuNzA3NyAxMC41ODlDNjkuNzA3NyAxMC43NzIzIDY5Ljc2MjcgMTAuOTA4IDY5Ljg3MjcgMTAuOTk2QzY5Ljk5IDExLjA4NCA3MC4xNTg3IDExLjEzOSA3MC4zNzg3IDExLjE2MUw3MS43OTc3IDExLjM1OUM3Mi4zNTUgMTEuNDI1IDcyLjc3MyAxMS42MjMgNzMuMDUxNyAxMS45NTNDNzMuMzM3NyAxMi4yNzU3IDczLjQ4MDcgMTIuNzEyIDczLjQ4MDcgMTMuMjYyQzczLjQ4MDcgMTMuODQ4NyA3My4yNzkgMTQuMzAzMyA3Mi44NzU3IDE0LjYyNkM3Mi40Nzk3IDE0Ljk0MTMgNzEuODk2NyAxNS4wOTkgNzEuMTI2NyAxNS4wOTlINzAuNjQyN1pNNzcuNDkxNCAxNS4wOTlDNzYuNzE0MSAxNS4wOTkgNzYuMDk4MSAxNC44ODI3IDc1LjY0MzQgMTQuNDVDNzUuMTg4NyAxNC4wMSA3NC45NjE0IDEzLjQxOTcgNzQuOTYxNCAxMi42NzlWMTEuMjcxQzc0Ljk2MTQgMTAuNTIzIDc1LjE4ODcgOS45MzI2NyA3NS42NDM0IDkuNUM3Ni4wOTgxIDkuMDY3MzMgNzYuNzE0MSA4Ljg1MSA3Ny40OTE0IDguODUxQzc4LjI2ODcgOC44NTEgNzguODg0NyA5LjA2NzMzIDc5LjMzOTQgOS41Qzc5Ljc5NDEgOS45MzI2NyA4MC4wMjE0IDEwLjUyMyA4MC4wMjE0IDExLjI3MVYxMi42NzlDODAuMDIxNCAxMy40MTk3IDc5Ljc5NDEgMTQuMDEgNzkuMzM5NCAxNC40NUM3OC44ODQ3IDE0Ljg4MjcgNzguMjY4NyAxNS4wOTkgNzcuNDkxNCAxNS4wOTlaTTc3LjQ5MTQgMTMuOUM3Ny44NTgxIDEzLjkgNzguMTQwNCAxMy44MDEgNzguMzM4NCAxMy42MDNDNzguNTQzNyAxMy4zOTc3IDc4LjY0NjQgMTMuMTA0MyA3OC42NDY0IDEyLjcyM1YxMS4yMjdDNzguNjQ2NCAxMC44NDU3IDc4LjU0MzcgMTAuNTU2IDc4LjMzODQgMTAuMzU4Qzc4LjE0MDQgMTAuMTUyNyA3Ny44NTgxIDEwLjA1IDc3LjQ5MTQgMTAuMDVDNzcuMTI0NyAxMC4wNSA3Ni44Mzg3IDEwLjE1MjcgNzYuNjMzNCAxMC4zNThDNzYuNDM1NCAxMC41NTYgNzYuMzM2NCAxMC44NDU3IDc2LjMzNjQgMTEuMjI3VjEyLjcyM0M3Ni4zMzY0IDEzLjEwNDMgNzYuNDM1NCAxMy4zOTc3IDc2LjYzMzQgMTMuNjAzQzc2LjgzODcgMTMuODAxIDc3LjEyNDcgMTMuOSA3Ny40OTE0IDEzLjlaTTg0LjA4NzEgMTUuMTFDODMuMzE3MSAxNS4xMSA4Mi43MTIxIDE0Ljg5NzMgODIuMjcyMSAxNC40NzJDODEuODMyMSAxNC4wMzkzIDgxLjYxMjEgMTMuNDUyNyA4MS42MTIxIDEyLjcxMlY4Ljk1SDgyLjk4NzFWMTIuNzAxQzgyLjk4NzEgMTMuMDgyMyA4My4wODI0IDEzLjM3OTMgODMuMjczMSAxMy41OTJDODMuNDYzOCAxMy44MDQ3IDgzLjczNTEgMTMuOTExIDg0LjA4NzEgMTMuOTExQzg0LjQzMTggMTMuOTExIDg0LjY5OTQgMTMuODA0NyA4NC44OTAxIDEzLjU5MkM4NS4wODgxIDEzLjM3OTMgODUuMTg3MSAxMy4wODIzIDg1LjE4NzEgMTIuNzAxVjguOTVIODYuNTYyMVYxMi43MTJDODYuNTYyMSAxMy40NTI3IDg2LjMzODQgMTQuMDM5MyA4NS44OTExIDE0LjQ3MkM4NS40NDM4IDE0Ljg5NzMgODQuODQyNCAxNS4xMSA4NC4wODcxIDE1LjExWk04OC40NDk4IDE1VjguOTVIODkuNzkxOFYxMC4xMjdDODkuODY1MSA5LjczMSA5MC4wNDQ4IDkuNDE5MzMgOTAuMzMwOCA5LjE5MkM5MC42MjQxIDguOTU3MzMgOTEuMDAxOCA4Ljg0IDkxLjQ2MzggOC44NEM5Mi4wNzk4IDguODQgOTIuNTYwMSA5LjAzOCA5Mi45MDQ4IDkuNDM0QzkzLjI0OTUgOS44MyA5My40MjE4IDEwLjM4MzcgOTMuNDIxOCAxMS4wOTVWMTEuNjY3SDkyLjA0NjhWMTEuMTYxQzkyLjA0NjggMTAuNzk0MyA5MS45NTE1IDEwLjUxNTcgOTEuNzYwOCAxMC4zMjVDOTEuNTcwMSAxMC4xMjcgOTEuMjk4OCAxMC4wMjggOTAuOTQ2OCAxMC4wMjhDOTAuNTgwMSAxMC4wMjggOTAuMzAxNSAxMC4xMzggOTAuMTEwOCAxMC4zNThDODkuOTIwMSAxMC41NzggODkuODI0OCAxMC44ODk3IDg5LjgyNDggMTEuMjkzVjE1SDg4LjQ0OThaTTk3LjM3NzUgMTUuMTFDOTYuODU2OCAxNS4xMSA5Ni40MDIyIDE1LjAxNDcgOTYuMDEzNSAxNC44MjRDOTUuNjMyMiAxNC42MjYgOTUuMzM1MiAxNC4zNTEgOTUuMTIyNSAxMy45OTlDOTQuOTA5OCAxMy42Mzk3IDk0LjgwMzUgMTMuMjE4IDk0LjgwMzUgMTIuNzM0VjExLjIxNkM5NC44MDM1IDEwLjczMiA5NC45MDk4IDEwLjMxNCA5NS4xMjI1IDkuOTYyQzk1LjMzNTIgOS42MDI2NyA5NS42MzIyIDkuMzI3NjcgOTYuMDEzNSA5LjEzN0M5Ni40MDIyIDguOTM5IDk2Ljg1NjggOC44NCA5Ny4zNzc1IDguODRDOTguMTMyOCA4Ljg0IDk4LjczNzggOS4wMzggOTkuMTkyNSA5LjQzNEM5OS42NTQ1IDkuODIyNjcgOTkuODk2NSAxMC4zNTQzIDk5LjkxODUgMTEuMDI5SDk4LjU2NTVDOTguNTQzNSAxMC43MTM3IDk4LjQyMjUgMTAuNDcxNyA5OC4yMDI1IDEwLjMwM0M5Ny45ODk4IDEwLjEyNyA5Ny43MTQ4IDEwLjAzOSA5Ny4zNzc1IDEwLjAzOUM5Ny4wMDM1IDEwLjAzOSA5Ni43MTAyIDEwLjE0MTcgOTYuNDk3NSAxMC4zNDdDOTYuMjg0OCAxMC41NDUgOTYuMTc4NSAxMC44MzEgOTYuMTc4NSAxMS4yMDVWMTIuNzM0Qzk2LjE3ODUgMTMuMTA4IDk2LjI4NDggMTMuMzk3NyA5Ni40OTc1IDEzLjYwM0M5Ni43MTAyIDEzLjgwODMgOTcuMDAzNSAxMy45MTEgOTcuMzc3NSAxMy45MTFDOTcuNzIyMiAxMy45MTEgOTguMDAwOCAxMy44MjY3IDk4LjIxMzUgMTMuNjU4Qzk4LjQyNjIgMTMuNDgyIDk4LjU0MzUgMTMuMjM2MyA5OC41NjU1IDEyLjkyMUg5OS45MTg1Qzk5Ljg5NjUgMTMuNTk1NyA5OS42NTQ1IDE0LjEzMSA5OS4xOTI1IDE0LjUyN0M5OC43Mzc4IDE0LjkxNTcgOTguMTMyOCAxNS4xMSA5Ny4zNzc1IDE1LjExWk0xMDMuODg1IDE1LjExQzEwMy4zNzIgMTUuMTEgMTAyLjkyNSAxNS4wMTEgMTAyLjU0MyAxNC44MTNDMTAyLjE2MiAxNC42MTUgMTAxLjg2NSAxNC4zMzYzIDEwMS42NTIgMTMuOTc3QzEwMS40NDcgMTMuNjEwMyAxMDEuMzQ0IDEzLjE4MTMgMTAxLjM0NCAxMi42OVYxMS4yNkMxMDEuMzQ0IDEwLjc2ODcgMTAxLjQ0NyAxMC4zNDMzIDEwMS42NTIgOS45ODRDMTAxLjg2NSA5LjYxNzMzIDEwMi4xNjIgOS4zMzUgMTAyLjU0MyA5LjEzN0MxMDIuOTI1IDguOTM5IDEwMy4zNzIgOC44NCAxMDMuODg1IDguODRDMTA0LjM5MSA4Ljg0IDEwNC44MzEgOC45MzkgMTA1LjIwNSA5LjEzN0MxMDUuNTg3IDkuMzM1IDEwNS44OCA5LjYxMzY3IDEwNi4wODUgOS45NzNDMTA2LjI5OCAxMC4zMjUgMTA2LjQwNCAxMC43MzkzIDEwNi40MDQgMTEuMjE2VjEyLjMxNkgxMDIuNjY0VjEyLjczNEMxMDIuNjY0IDEzLjE0NDcgMTAyLjc3MSAxMy40NTYzIDEwMi45ODMgMTMuNjY5QzEwMy4xOTYgMTMuODc0MyAxMDMuNDk3IDEzLjk3NyAxMDMuODg1IDEzLjk3N0MxMDQuMTcxIDEzLjk3NyAxMDQuNDEzIDEzLjkyOTMgMTA0LjYxMSAxMy44MzRDMTA0LjgxNyAxMy43MzEzIDEwNC45MzggMTMuNTg0NyAxMDQuOTc0IDEzLjM5NEgxMDYuMzM4QzEwNi4yNDMgMTMuOTE0NyAxMDUuOTcyIDE0LjMzMjcgMTA1LjUyNCAxNC42NDhDMTA1LjA3NyAxNC45NTYgMTA0LjUzMSAxNS4xMSAxMDMuODg1IDE1LjExWk0xMDIuNjY0IDExLjIxNlYxMS40MjVMMTA1LjA4NCAxMS40MTRWMTEuMjA1QzEwNS4wODQgMTAuNzg3IDEwNC45ODIgMTAuNDY0MyAxMDQuNzc2IDEwLjIzN0MxMDQuNTcxIDEwLjAwOTcgMTA0LjI3NCA5Ljg5NiAxMDMuODg1IDkuODk2QzEwMy40ODIgOS44OTYgMTAzLjE3OCAxMC4wMTMzIDEwMi45NzIgMTAuMjQ4QzEwMi43NjcgMTAuNDc1MyAxMDIuNjY0IDEwLjc5OCAxMDIuNjY0IDExLjIxNlpNMTEwLjIxNyAxNS4wOTlDMTA5LjQ5OCAxNS4wOTkgMTA4LjkzIDE0LjkzNzcgMTA4LjUxMiAxNC42MTVDMTA4LjA5NCAxNC4yODUgMTA3Ljg4NSAxMy44NDEzIDEwNy44ODUgMTMuMjg0SDEwOS4yMzhDMTA5LjIzOCAxMy41MTg3IDEwOS4zMjIgMTMuNjk4MyAxMDkuNDkxIDEzLjgyM0MxMDkuNjY3IDEzLjk0NzcgMTA5LjkwOSAxNC4wMSAxMTAuMjE3IDE0LjAxSDExMC43MDFDMTExLjAzMSAxNC4wMSAxMTEuMjg0IDEzLjk0NzcgMTExLjQ2IDEzLjgyM0MxMTEuNjQzIDEzLjY5ODMgMTExLjczNSAxMy41MTg3IDExMS43MzUgMTMuMjg0QzExMS43MzUgMTMuMDY0IDExMS42NzMgMTIuOTAyNyAxMTEuNTQ4IDEyLjhDMTExLjQyMyAxMi42OSAxMTEuMjMzIDEyLjYxNjcgMTEwLjk3NiAxMi41OEwxMDkuNDY5IDEyLjM4MkMxMDguOTg1IDEyLjMxNiAxMDguNjExIDEyLjEyOSAxMDguMzQ3IDExLjgyMUMxMDguMDkgMTEuNTEzIDEwNy45NjIgMTEuMTEzMyAxMDcuOTYyIDEwLjYyMkMxMDcuOTYyIDEwLjA1IDEwOC4xNTMgOS42MTM2NyAxMDguNTM0IDkuMzEzQzEwOC45MTUgOS4wMDUgMTA5LjQ2NSA4Ljg1MSAxMTAuMTg0IDguODUxSDExMC42OUMxMTEuMzY1IDguODUxIDExMS45MDcgOS4wMDUgMTEyLjMxOCA5LjMxM0MxMTIuNzI5IDkuNjIxIDExMi45NDEgMTAuMDMxNyAxMTIuOTU2IDEwLjU0NUgxMTEuNTkyQzExMS41ODUgMTAuMzU0MyAxMTEuNSAxMC4yMDQgMTExLjMzOSAxMC4wOTRDMTExLjE3OCA5Ljk3NjY3IDExMC45NjEgOS45MTggMTEwLjY5IDkuOTE4SDExMC4xODRDMTA5Ljg5MSA5LjkxOCAxMDkuNjY3IDkuOTgwMzMgMTA5LjUxMyAxMC4xMDVDMTA5LjM1OSAxMC4yMjIzIDEwOS4yODIgMTAuMzgzNyAxMDkuMjgyIDEwLjU4OUMxMDkuMjgyIDEwLjc3MjMgMTA5LjMzNyAxMC45MDggMTA5LjQ0NyAxMC45OTZDMTA5LjU2NCAxMS4wODQgMTA5LjczMyAxMS4xMzkgMTA5Ljk1MyAxMS4xNjFMMTExLjM3MiAxMS4zNTlDMTExLjkyOSAxMS40MjUgMTEyLjM0NyAxMS42MjMgMTEyLjYyNiAxMS45NTNDMTEyLjkxMiAxMi4yNzU3IDExMy4wNTUgMTIuNzEyIDExMy4wNTUgMTMuMjYyQzExMy4wNTUgMTMuODQ4NyAxMTIuODUzIDE0LjMwMzMgMTEyLjQ1IDE0LjYyNkMxMTIuMDU0IDE0Ljk0MTMgMTExLjQ3MSAxNS4wOTkgMTEwLjcwMSAxNS4wOTlIMTEwLjIxN1oiLz4mI3hhOzwvc3ZnPg==;imageBackground=none;imageBorder=none;" vertex="1" parent="1">
          <mxGeometry x="317.00093017578126" y="306.99526715959826" width="122" height="23" as="geometry" />
        </mxCell>
        <mxCell id="4B-1JcJdaMHV0bxuoDUO-45" value="" style="shape=image;verticalLabelPosition=bottom;labelBackgroundColor=default;verticalAlign=top;aspect=fixed;imageAspect=0;image=data:image/svg+xml,PHN2ZyB4bWxucz0iaHR0cDovL3d3dy53My5vcmcvMjAwMC9zdmciIGZpbGw9Im5vbmUiIHZpZXdCb3g9IjAgMCA5NiA0NCIgaGVpZ2h0PSI0NCIgd2lkdGg9Ijk2Ij4mI3hhOzxyZWN0IGZpbGw9IiNGQ0ZDRkMiIHJ4PSIzIiBoZWlnaHQ9IjQyIiB3aWR0aD0iOTQiIHk9IjEiIHg9IjEiLz4mI3hhOzxyZWN0IHN0cm9rZS13aWR0aD0iMiIgc3Ryb2tlPSJibGFjayIgcng9IjMiIGhlaWdodD0iNDIiIHdpZHRoPSI5NCIgeT0iMSIgeD0iMSIvPiYjeGE7PGcgY2xpcC1wYXRoPSJ1cmwoI2NsaXAwXzE0M181MjE5KSI+JiN4YTs8cGF0aCBmaWxsPSIjMTgxNjE2IiBkPSJNMjIuMDAwMSAxMi43OTc0QzE2Ljc4OTYgMTIuNzk3NCAxMi41NjQ1IDE3LjAyMTYgMTIuNTY0NSAyMi4yMzNDMTIuNTY0NSAyNi40MDIxIDE1LjI2OCAyOS45Mzg4IDE5LjAxNzEgMzEuMTg2NkMxOS40ODg1IDMxLjI3NDEgMTkuNjYxNiAzMC45ODE5IDE5LjY2MTYgMzAuNzMyN0MxOS42NjE2IDMwLjUwNzcgMTkuNjUyOSAyOS43NjQ0IDE5LjY0ODggMjguOTc2QzE3LjAyMzggMjkuNTQ2NyAxNi40Njk5IDI3Ljg2MjcgMTYuNDY5OSAyNy44NjI3QzE2LjA0MDcgMjYuNzcyMSAxNS40MjIzIDI2LjQ4MjEgMTUuNDIyMyAyNi40ODIxQzE0LjU2NiAyNS44OTY0IDE1LjQ4NjggMjUuOTA4NiAxNS40ODY4IDI1LjkwODZDMTYuNDM0MSAyNS45NzUgMTYuOTMzMiAyNi44ODEgMTYuOTMzMiAyNi44ODFDMTcuNzc0OCAyOC4zMjMxIDE5LjE0MDUgMjcuOTA2MyAxOS42NzkgMjcuNjY1M0MxOS43NjM3IDI3LjA1NTUgMjAuMDA4MiAyNi42MzkxIDIwLjI3OCAyNi40MDM1QzE4LjE4MjMgMjYuMTY1MiAxNS45NzkgMjUuMzU2IDE1Ljk3OSAyMS43NDA1QzE1Ljk3OSAyMC43MTAzIDE2LjM0NzcgMTkuODY4NiAxNi45NTEzIDE5LjIwNzdDMTYuODUzMiAxOC45NzAyIDE2LjUzMDIgMTguMDEwNSAxNy4wNDI2IDE2LjcxMDhDMTcuMDQyNiAxNi43MTA4IDE3LjgzNDggMTYuNDU3MiAxOS42Mzc5IDE3LjY3OEMyMC4zOTA3IDE3LjQ2ODggMjEuMTk4IDE3LjM2MzYgMjIuMDAwMSAxNy4zNkMyMi44MDE2IDE3LjM2MzYgMjMuNjA5NSAxNy40Njg1IDI0LjM2MzcgMTcuNjc3N0MyNi4xNjQ2IDE2LjQ1NjkgMjYuOTU1OSAxNi43MTA1IDI2Ljk1NTkgMTYuNzEwNUMyNy40Njk1IDE4LjAxIDI3LjE0NjUgMTguOTY5OSAyNy4wNDg1IDE5LjIwNzRDMjcuNjUzNSAxOS44NjgzIDI4LjAxOTYgMjAuNzEgMjguMDE5NiAyMS43NDAyQzI4LjAxOTYgMjUuMzY0MiAyNS44MTIzIDI2LjE2MjEgMjMuNzExMiAyNi4zOTU4QzI0LjA0OTggMjYuNjg4NiAyNC4zNTEzIDI3LjI2MyAyNC4zNTEzIDI4LjE0MzFDMjQuMzUxMyAyOS40MDU2IDI0LjM0MDQgMzAuNDIxNyAyNC4zNDA0IDMwLjczMjVDMjQuMzQwNCAzMC45ODM2IDI0LjUxMDQgMzEuMjc3OCAyNC45ODg1IDMxLjE4NTJDMjguNzM1NCAyOS45MzYxIDMxLjQzNTkgMjYuNDAwNSAzMS40MzU5IDIyLjIzM0MzMS40MzU3IDE3LjAyMTkgMjcuMjExIDEyLjc5NzQgMjIuMDAwMSAxMi43OTc0WiIgY2xpcC1ydWxlPSJldmVub2RkIiBmaWxsLXJ1bGU9ImV2ZW5vZGQiLz4mI3hhOzxwYXRoIGZpbGw9IiMxODE2MTYiIGQ9Ik0xNi4xMzgxIDI2LjM0NDhDMTYuMTE3MyAyNi4zOTE3IDE2LjA0MzYgMjYuNDA1NyAxNS45NzY0IDI2LjM3MzdDMTUuOTA3NyAyNi4zNDMxIDE1Ljg2OTQgMjYuMjc5MiAxNS44OTE2IDI2LjIzMjFDMTUuOTExOSAyNi4xODM3IDE1Ljk4NTggMjYuMTcwNCAxNi4wNTQxIDI2LjIwMjhDMTYuMTIyOCAyNi4yMzM1IDE2LjE2MTkgMjYuMjk4MSAxNi4xMzggMjYuMzQ0OUwxNi4xMzgxIDI2LjM0NDhaTTE2LjUyMDMgMjYuNzcxMkMxNi40NzU1IDI2LjgxMjkgMTYuMzg3NSAyNi43OTM1IDE2LjMyNzggMjYuNzI3NEMxNi4yNjU5IDI2LjY2MTggMTYuMjU0NCAyNi41NzM4IDE2LjMwMDIgMjYuNTMxNUMxNi4zNDY3IDI2LjQ4OTkgMTYuNDMyIDI2LjUwOTYgMTYuNDkzOSAyNi41NzUzQzE2LjU1NTUgMjYuNjQxOCAxNi41Njc3IDI2LjcyOSAxNi41MjA1IDI2Ljc3MTNMMTYuNTIwMyAyNi43NzEyWk0xNi44OTI1IDI3LjMxNDVDMTYuODM0NyAyNy4zNTQ4IDE2Ljc0IDI3LjMxNzEgMTYuNjgxNiAyNy4yMzMyQzE2LjYyMzcgMjcuMTQ5MiAxNi42MjM3IDI3LjA0ODQgMTYuNjgzMSAyNy4wMDgyQzE2Ljc0MTQgMjYuOTY3OSAxNi44MzQ3IDI3LjAwNDMgMTYuODk0MSAyNy4wODc0QzE2Ljk1MTYgMjcuMTcyNiAxNi45NTE2IDI3LjI3MzUgMTYuODkyNSAyNy4zMTQ1Wk0xNy40MDIgMjcuODM5NkMxNy4zNTA1IDI3Ljg5NjcgMTcuMjQwMiAyNy44ODEzIDE3LjE1OTUgMjcuODAzN0MxNy4wNzcyIDI3LjcyNzYgMTcuMDU0MiAyNy42MTkzIDE3LjEwNTkgMjcuNTYyNEMxNy4xNTg0IDI3LjUwNTMgMTcuMjY5MiAyNy41MjEyIDE3LjM1MDMgMjcuNTk4NEMxNy40MzI3IDI3LjY3NDMgMTcuNDU3NSAyNy43ODI4IDE3LjQwMjMgMjcuODM5NUwxNy40MDIgMjcuODM5NlpNMTguMTA1MiAyOC4xNDQ1QzE4LjA4MjIgMjguMjE4NCAxNy45NzYyIDI4LjI1MiAxNy44NjkyIDI4LjIyMDRDMTcuNzYyNSAyOC4xODgxIDE3LjY5MjcgMjguMTAxNyAxNy43MTQ1IDI4LjAyN0MxNy43MzY0IDI3Ljk1MjQgMTcuODQzMSAyNy45MTc2IDE3Ljk1MDggMjcuOTUxMkMxOC4wNTc1IDI3Ljk4MzQgMTguMTI3MyAyOC4wNjkzIDE4LjEwNTIgMjguMTQ0NVpNMTguODc3NSAyOC4yMDA5QzE4Ljg4MDIgMjguMjc4NyAxOC43ODk1IDI4LjM0MzEgMTguNjc3NSAyOC4zNDQ2QzE4LjU2NDUgMjguMzQ3MyAxOC40NzMxIDI4LjI4NDIgMTguNDcyIDI4LjIwNzZDMTguNDcyIDI4LjEyOSAxOC41NjA4IDI4LjA2NTQgMTguNjczNiAyOC4wNjMyQzE4Ljc4NTYgMjguMDYxMiAxOC44Nzc3IDI4LjEyMzcgMTguODc3NyAyOC4yMDA3TDE4Ljg3NzUgMjguMjAwOVpNMTkuNTk1OSAyOC4wNzg3QzE5LjYwOTQgMjguMTU0NSAxOS41MzE0IDI4LjIzMjQgMTkuNDIgMjguMjUzMkMxOS4zMTA2IDI4LjI3MzUgMTkuMjA5MSAyOC4yMjYzIDE5LjE5NSAyOC4xNTEyQzE5LjE4MTYgMjguMDczNCAxOS4yNjA5IDI3Ljk5NTQgMTkuMzcwMyAyNy45NzUzQzE5LjQ4MTkgMjcuOTU2IDE5LjU4MTkgMjguMDAxNyAxOS41OTU5IDI4LjA3ODdaIi8+JiN4YTs8L2c+JiN4YTs8cGF0aCBmaWxsPSJibGFjayIgZD0iTTQ3LjU1NjkgMjUuNjFDNDcuMDM2MiAyNS42MSA0Ni41ODUyIDI1LjUxNDcgNDYuMjAzOSAyNS4zMjRDNDUuODIyNiAyNS4xMjYgNDUuNTI1NiAyNC44NTEgNDUuMzEyOSAyNC40OTlDNDUuMTA3NiAyNC4xMzk3IDQ1LjAwNDkgMjMuNzE4IDQ1LjAwNDkgMjMuMjM0VjE5LjczNkM0NS4wMDQ5IDE5LjI1MiA0NS4xMDc2IDE4LjgzNCA0NS4zMTI5IDE4LjQ4MkM0NS41MjU2IDE4LjEyMjcgNDUuODIyNiAxNy44NDc3IDQ2LjIwMzkgMTcuNjU3QzQ2LjU4NTIgMTcuNDU5IDQ3LjAzNjIgMTcuMzYgNDcuNTU2OSAxNy4zNkM0OC4wNzAyIDE3LjM2IDQ4LjUxNzYgMTcuNDU5IDQ4Ljg5ODkgMTcuNjU3QzQ5LjI4MDIgMTcuODQ3NyA0OS41NzcyIDE4LjEyMjcgNDkuNzg5OSAxOC40ODJDNTAuMDAyNiAxOC44MzQgNTAuMTA4OSAxOS4yNTIgNTAuMTA4OSAxOS43MzZINDguNzIyOUM0OC43MjI5IDE5LjM2MiA0OC42MjAyIDE5LjA3NiA0OC40MTQ5IDE4Ljg3OEM0OC4yMTY5IDE4LjY3MjcgNDcuOTMwOSAxOC41NyA0Ny41NTY5IDE4LjU3QzQ3LjE4MjkgMTguNTcgNDYuODkzMiAxOC42NjkgNDYuNjg3OSAxOC44NjdDNDYuNDgyNiAxOS4wNjUgNDYuMzc5OSAxOS4zNTEgNDYuMzc5OSAxOS43MjVWMjMuMjM0QzQ2LjM3OTkgMjMuNjA4IDQ2LjQ4MjYgMjMuODk3NyA0Ni42ODc5IDI0LjEwM0M0Ni44OTMyIDI0LjMwODMgNDcuMTgyOSAyNC40MTEgNDcuNTU2OSAyNC40MTFDNDcuOTMwOSAyNC40MTEgNDguMjE2OSAyNC4zMDgzIDQ4LjQxNDkgMjQuMTAzQzQ4LjYyMDIgMjMuODk3NyA0OC43MjI5IDIzLjYwOCA0OC43MjI5IDIzLjIzNFYyMi4zNDNINDcuMzU4OVYyMS4xNTVINTAuMTA4OVYyMy4yMzRDNTAuMTA4OSAyMy43MTggNTAuMDAyNiAyNC4xMzk3IDQ5Ljc4OTkgMjQuNDk5QzQ5LjU3NzIgMjQuODUxIDQ5LjI4MDIgMjUuMTI2IDQ4Ljg5ODkgMjUuMzI0QzQ4LjUxNzYgMjUuNTE0NyA0OC4wNzAyIDI1LjYxIDQ3LjU1NjkgMjUuNjFaTTUxLjY0NDYgMjUuNVYyNC4yNTdINTMuNzEyNlYyMC42OTNINTEuODY0NlYxOS40NUg1NS4wODc2VjI0LjI1N0g1Ni45NDY2VjI1LjVINTEuNjQ0NlpNNTQuMzA2NiAxOC40MzhDNTQuMDI3OSAxOC40MzggNTMuODA3OSAxOC4zNjgzIDUzLjY0NjYgMTguMjI5QzUzLjQ4NTMgMTguMDgyMyA1My40MDQ2IDE3Ljg4OCA1My40MDQ2IDE3LjY0NkM1My40MDQ2IDE3LjQwNCA1My40ODUzIDE3LjIxMzMgNTMuNjQ2NiAxNy4wNzRDNTMuODA3OSAxNi45MjczIDU0LjAyNzkgMTYuODU0IDU0LjMwNjYgMTYuODU0QzU0LjU4NTMgMTYuODU0IDU0LjgwNTMgMTYuOTI3MyA1NC45NjY2IDE3LjA3NEM1NS4xMjc5IDE3LjIxMzMgNTUuMjA4NiAxNy40MDQgNTUuMjA4NiAxNy42NDZDNTUuMjA4NiAxNy44ODggNTUuMTI3OSAxOC4wODIzIDU0Ljk2NjYgMTguMjI5QzU0LjgwNTMgMTguMzY4MyA1NC41ODUzIDE4LjQzOCA1NC4zMDY2IDE4LjQzOFpNNjEuMzA5MyAyNS41QzYwLjc0NDYgMjUuNSA2MC4yOTM2IDI1LjMzODcgNTkuOTU2MyAyNS4wMTZDNTkuNjI2MyAyNC42ODYgNTkuNDYxMyAyNC4yNDIzIDU5LjQ2MTMgMjMuNjg1VjIwLjY5M0g1Ny43ODkzVjE5LjQ1SDU5LjQ2MTNWMTcuNzQ1SDYwLjg0NzNWMTkuNDVINjMuMjU2M1YyMC42OTNINjAuODQ3M1YyMy42NTJDNjAuODQ3MyAyMy44MjggNjAuODk1IDIzLjk3NDcgNjAuOTkwMyAyNC4wOTJDNjEuMDkzIDI0LjIwMiA2MS4yMzIzIDI0LjI1NyA2MS40MDgzIDI0LjI1N0g2My4yMDEzVjI1LjVINjEuMzA5M1pNNjQuODQ3IDI1LjVWMTcuNDdINjYuMjIyVjIwLjcyNkg2OC4zNzhWMTcuNDdINjkuNzUzVjI1LjVINjguMzc4VjIxLjk2OUg2Ni4yMjJWMjUuNUg2NC44NDdaTTczLjg5NTcgMjUuNjFDNzMuMTI1NyAyNS42MSA3Mi41MjA3IDI1LjM5NzMgNzIuMDgwNyAyNC45NzJDNzEuNjQwNyAyNC41MzkzIDcxLjQyMDcgMjMuOTUyNyA3MS40MjA3IDIzLjIxMlYxOS40NUg3Mi43OTU3VjIzLjIwMUM3Mi43OTU3IDIzLjU4MjMgNzIuODkxIDIzLjg3OTMgNzMuMDgxNyAyNC4wOTJDNzMuMjcyNCAyNC4zMDQ3IDczLjU0MzcgMjQuNDExIDczLjg5NTcgMjQuNDExQzc0LjI0MDQgMjQuNDExIDc0LjUwOCAyNC4zMDQ3IDc0LjY5ODcgMjQuMDkyQzc0Ljg5NjcgMjMuODc5MyA3NC45OTU3IDIzLjU4MjMgNzQuOTk1NyAyMy4yMDFWMTkuNDVINzYuMzcwN1YyMy4yMTJDNzYuMzcwNyAyMy45NTI3IDc2LjE0NyAyNC41MzkzIDc1LjY5OTcgMjQuOTcyQzc1LjI1MjQgMjUuMzk3MyA3NC42NTEgMjUuNjEgNzMuODk1NyAyNS42MVpNODEuMDQxNCAyNS42MUM4MC42MTYxIDI1LjYxIDgwLjI2MDQgMjUuNTAzNyA3OS45NzQ0IDI1LjI5MUM3OS42ODg0IDI1LjA3ODMgNzkuNDkwNCAyNC43ODEzIDc5LjM4MDQgMjQuNFYyNS41SDc4LjAzODRWMTcuNDdINzkuNDEzNFYxOS4xNjRMNzkuMzY5NCAyMC41NUM3OS40ODY3IDIwLjE2ODcgNzkuNjg4NCAxOS44NzE3IDc5Ljk3NDQgMTkuNjU5QzgwLjI2NzcgMTkuNDQ2MyA4MC42MjM0IDE5LjM0IDgxLjA0MTQgMTkuMzRDODEuNjM1NCAxOS4zNCA4Mi4xMTIxIDE5LjU0OSA4Mi40NzE0IDE5Ljk2N0M4Mi44MzA3IDIwLjM4NSA4My4wMTA0IDIwLjk0OTcgODMuMDEwNCAyMS42NjFWMjMuM0M4My4wMTA0IDI0LjAwNCA4Mi44MjcxIDI0LjU2NSA4Mi40NjA0IDI0Ljk4M0M4Mi4xMDExIDI1LjQwMSA4MS42MjgxIDI1LjYxIDgxLjA0MTQgMjUuNjFaTTgwLjUyNDQgMjQuNDIyQzgwLjg3NjQgMjQuNDIyIDgxLjE0NzcgMjQuMzI2NyA4MS4zMzg0IDI0LjEzNkM4MS41MzY0IDIzLjk0NTMgODEuNjM1NCAyMy42NTIgODEuNjM1NCAyMy4yNTZWMjEuNjk0QzgxLjYzNTQgMjEuMjk4IDgxLjUzNjQgMjEuMDA0NyA4MS4zMzg0IDIwLjgxNEM4MS4xNDc3IDIwLjYyMzMgODAuODc2NCAyMC41MjggODAuNTI0NCAyMC41MjhDODAuMTcyNCAyMC41MjggNzkuODk3NCAyMC42MzQzIDc5LjY5OTQgMjAuODQ3Qzc5LjUwODcgMjEuMDU5NyA3OS40MTM0IDIxLjM2MDMgNzkuNDEzNCAyMS43NDlWMjMuMjAxQzc5LjQxMzQgMjMuNTg5NyA3OS41MDg3IDIzLjg5MDMgNzkuNjk5NCAyNC4xMDNDNzkuODk3NCAyNC4zMTU3IDgwLjE3MjQgMjQuNDIyIDgwLjUyNDQgMjQuNDIyWiIvPiYjeGE7PGRlZnM+JiN4YTs8Y2xpcFBhdGggaWQ9ImNsaXAwXzE0M181MjE5Ij4mI3hhOzxyZWN0IHRyYW5zZm9ybT0idHJhbnNsYXRlKDEyIDEyKSIgZmlsbD0id2hpdGUiIGhlaWdodD0iMjAiIHdpZHRoPSIyMCIvPiYjeGE7PC9jbGlwUGF0aD4mI3hhOzwvZGVmcz4mI3hhOzwvc3ZnPg==;" vertex="1" parent="1">
          <mxGeometry x="330.00093017578126" y="147.99526715959826" width="96" height="44" as="geometry" />
        </mxCell>
        <mxCell id="4B-1JcJdaMHV0bxuoDUO-46" value="" style="shape=image;verticalLabelPosition=bottom;labelBackgroundColor=default;verticalAlign=top;aspect=fixed;imageAspect=0;image=data:image/svg+xml,PHN2ZyB4bWxucz0iaHR0cDovL3d3dy53My5vcmcvMjAwMC9zdmciIGZpbGw9Im5vbmUiIHZpZXdCb3g9IjAgMCA4OSAyMyIgaGVpZ2h0PSIyMyIgd2lkdGg9Ijg5Ij4mI3hhOzxyZWN0IGZpbGw9IiNGQ0ZDRkMiIHJ4PSIzIiBoZWlnaHQ9IjIxIiB3aWR0aD0iODciIHk9IjEiIHg9IjEiLz4mI3hhOzxyZWN0IHN0cm9rZS13aWR0aD0iMiIgc3Ryb2tlPSJibGFjayIgcng9IjMiIGhlaWdodD0iMjEiIHdpZHRoPSI4NyIgeT0iMSIgeD0iMSIvPiYjeGE7PHBhdGggZmlsbD0iYmxhY2siIGQ9Ik0xMS41NTY2IDE1LjExQzExLjAxNCAxNS4xMSAxMC41MzczIDE1LjAxNDcgMTAuMTI2NiAxNC44MjRDOS43MjMzIDE0LjYzMzMgOS40MDc5NyAxNC4zNjIgOS4xODA2MyAxNC4wMUM4Ljk2MDYzIDEzLjY1MDcgOC44NTA2MyAxMy4yMjUzIDguODUwNjMgMTIuNzM0SDEwLjIwMzZDMTAuMjAzNiAxMy4wOTMzIDEwLjMyNDYgMTMuMzc5MyAxMC41NjY2IDEzLjU5MkMxMC44MTYgMTMuODA0NyAxMS4xNDYgMTMuOTExIDExLjU1NjYgMTMuOTExQzExLjk1MjYgMTMuOTExIDEyLjI2NDMgMTMuODA4MyAxMi40OTE2IDEzLjYwM0MxMi43MjYzIDEzLjM5MDMgMTIuODQzNiAxMy4xMDggMTIuODQzNiAxMi43NTZDMTIuODQzNiAxMi40OTIgMTIuNzY2NiAxMi4yNjEgMTIuNjEyNiAxMi4wNjNDMTIuNDY2IDExLjg1NzcgMTIuMjUzMyAxMS43MTgzIDExLjk3NDYgMTEuNjQ1TDEwLjg5NjYgMTEuMzdDMTAuMzE3MyAxMS4yMjMzIDkuODU4OTcgMTAuOTQ4MyA5LjUyMTYzIDEwLjU0NUM5LjE4NDMgMTAuMTQxNyA5LjAxNTYzIDkuNjYxMzMgOS4wMTU2MyA5LjEwNEM5LjAxNTYzIDguNDIyIDkuMjM5MyA3Ljg3OTMzIDkuNjg2NjMgNy40NzZDMTAuMTM0IDcuMDY1MzMgMTAuNzMxNiA2Ljg2IDExLjQ3OTYgNi44NkMxMS45ODU2IDYuODYgMTIuNDI1NiA2Ljk1MTY3IDEyLjc5OTYgNy4xMzVDMTMuMTgxIDcuMzE4MzMgMTMuNDc0MyA3LjU3ODY3IDEzLjY3OTYgNy45MTZDMTMuODg1IDguMjQ2IDEzLjk4NzYgOC42MzQ2NyAxMy45ODc2IDkuMDgySDEyLjY0NTZDMTIuNjQ1NiA4Ljc3NCAxMi41MzkzIDguNTI0NjcgMTIuMzI2NiA4LjMzNEMxMi4xMTQgOC4xNDMzMyAxMS44MzE2IDguMDQ4IDExLjQ3OTYgOC4wNDhDMTEuMTM1IDguMDQ4IDEwLjg2IDguMTQzMzMgMTAuNjU0NiA4LjMzNEMxMC40NTY2IDguNTE3MzMgMTAuMzU3NiA4Ljc1OTMzIDEwLjM1NzYgOS4wNkMxMC4zNTc2IDkuMzA5MzMgMTAuNDI3MyA5LjUxNDY3IDEwLjU2NjYgOS42NzZDMTAuNzEzMyA5LjgzNzMzIDEwLjkxNSA5Ljk1NDY3IDExLjE3MTYgMTAuMDI4TDEyLjI4MjYgMTAuMzAzQzEyLjg3NjYgMTAuNDQ5NyAxMy4zNDIzIDEwLjc0MyAxMy42Nzk2IDExLjE4M0MxNC4wMjQzIDExLjYyMyAxNC4xOTY2IDEyLjE0NzMgMTQuMTk2NiAxMi43NTZDMTQuMTk2NiAxMy4yMzI3IDE0LjA4NjYgMTMuNjQ3IDEzLjg2NjYgMTMuOTk5QzEzLjY1NCAxNC4zNTEgMTMuMzQ5NiAxNC42MjYgMTIuOTUzNiAxNC44MjRDMTIuNTU3NiAxNS4wMTQ3IDEyLjA5MiAxNS4xMSAxMS41NTY2IDE1LjExWk0xOC4xMTkzIDE1LjA5OUMxNy4zNDIgMTUuMDk5IDE2LjcyNiAxNC44ODI3IDE2LjI3MTMgMTQuNDVDMTUuODE2NyAxNC4wMSAxNS41ODkzIDEzLjQxOTcgMTUuNTg5MyAxMi42NzlWMTEuMjcxQzE1LjU4OTMgMTAuNTIzIDE1LjgxNjcgOS45MzI2NyAxNi4yNzEzIDkuNUMxNi43MjYgOS4wNjczMyAxNy4zNDIgOC44NTEgMTguMTE5MyA4Ljg1MUMxOC44OTY3IDguODUxIDE5LjUxMjcgOS4wNjczMyAxOS45NjczIDkuNUMyMC40MjIgOS45MzI2NyAyMC42NDkzIDEwLjUyMyAyMC42NDkzIDExLjI3MVYxMi42NzlDMjAuNjQ5MyAxMy40MTk3IDIwLjQyMiAxNC4wMSAxOS45NjczIDE0LjQ1QzE5LjUxMjcgMTQuODgyNyAxOC44OTY3IDE1LjA5OSAxOC4xMTkzIDE1LjA5OVpNMTguMTE5MyAxMy45QzE4LjQ4NiAxMy45IDE4Ljc2ODMgMTMuODAxIDE4Ljk2NjMgMTMuNjAzQzE5LjE3MTcgMTMuMzk3NyAxOS4yNzQzIDEzLjEwNDMgMTkuMjc0MyAxMi43MjNWMTEuMjI3QzE5LjI3NDMgMTAuODQ1NyAxOS4xNzE3IDEwLjU1NiAxOC45NjYzIDEwLjM1OEMxOC43NjgzIDEwLjE1MjcgMTguNDg2IDEwLjA1IDE4LjExOTMgMTAuMDVDMTcuNzUyNyAxMC4wNSAxNy40NjY3IDEwLjE1MjcgMTcuMjYxMyAxMC4zNThDMTcuMDYzMyAxMC41NTYgMTYuOTY0MyAxMC44NDU3IDE2Ljk2NDMgMTEuMjI3VjEyLjcyM0MxNi45NjQzIDEzLjEwNDMgMTcuMDYzMyAxMy4zOTc3IDE3LjI2MTMgMTMuNjAzQzE3LjQ2NjcgMTMuODAxIDE3Ljc1MjcgMTMuOSAxOC4xMTkzIDEzLjlaTTI0LjcxNSAxNS4xMUMyMy45NDUgMTUuMTEgMjMuMzQgMTQuODk3MyAyMi45IDE0LjQ3MkMyMi40NiAxNC4wMzkzIDIyLjI0IDEzLjQ1MjcgMjIuMjQgMTIuNzEyVjguOTVIMjMuNjE1VjEyLjcwMUMyMy42MTUgMTMuMDgyMyAyMy43MTA0IDEzLjM3OTMgMjMuOTAxIDEzLjU5MkMyNC4wOTE3IDEzLjgwNDcgMjQuMzYzIDEzLjkxMSAyNC43MTUgMTMuOTExQzI1LjA1OTcgMTMuOTExIDI1LjMyNzQgMTMuODA0NyAyNS41MTggMTMuNTkyQzI1LjcxNiAxMy4zNzkzIDI1LjgxNSAxMy4wODIzIDI1LjgxNSAxMi43MDFWOC45NUgyNy4xOVYxMi43MTJDMjcuMTkgMTMuNDUyNyAyNi45NjY0IDE0LjAzOTMgMjYuNTE5IDE0LjQ3MkMyNi4wNzE3IDE0Ljg5NzMgMjUuNDcwNCAxNS4xMSAyNC43MTUgMTUuMTFaTTI5LjA3NzcgMTVWOC45NUgzMC40MTk3VjEwLjEyN0MzMC40OTMxIDkuNzMxIDMwLjY3MjcgOS40MTkzMyAzMC45NTg3IDkuMTkyQzMxLjI1MjEgOC45NTczMyAzMS42Mjk3IDguODQgMzIuMDkxNyA4Ljg0QzMyLjcwNzcgOC44NCAzMy4xODgxIDkuMDM4IDMzLjUzMjcgOS40MzRDMzMuODc3NCA5LjgzIDM0LjA0OTcgMTAuMzgzNyAzNC4wNDk3IDExLjA5NVYxMS42NjdIMzIuNjc0N1YxMS4xNjFDMzIuNjc0NyAxMC43OTQzIDMyLjU3OTQgMTAuNTE1NyAzMi4zODg3IDEwLjMyNUMzMi4xOTgxIDEwLjEyNyAzMS45MjY3IDEwLjAyOCAzMS41NzQ3IDEwLjAyOEMzMS4yMDgxIDEwLjAyOCAzMC45Mjk0IDEwLjEzOCAzMC43Mzg3IDEwLjM1OEMzMC41NDgxIDEwLjU3OCAzMC40NTI3IDEwLjg4OTcgMzAuNDUyNyAxMS4yOTNWMTVIMjkuMDc3N1pNMzguMDA1NCAxNS4xMUMzNy40ODQ4IDE1LjExIDM3LjAzMDEgMTUuMDE0NyAzNi42NDE0IDE0LjgyNEMzNi4yNjAxIDE0LjYyNiAzNS45NjMxIDE0LjM1MSAzNS43NTA0IDEzLjk5OUMzNS41Mzc4IDEzLjYzOTcgMzUuNDMxNCAxMy4yMTggMzUuNDMxNCAxMi43MzRWMTEuMjE2QzM1LjQzMTQgMTAuNzMyIDM1LjUzNzggMTAuMzE0IDM1Ljc1MDQgOS45NjJDMzUuOTYzMSA5LjYwMjY3IDM2LjI2MDEgOS4zMjc2NyAzNi42NDE0IDkuMTM3QzM3LjAzMDEgOC45MzkgMzcuNDg0OCA4Ljg0IDM4LjAwNTQgOC44NEMzOC43NjA4IDguODQgMzkuMzY1OCA5LjAzOCAzOS44MjA0IDkuNDM0QzQwLjI4MjQgOS44MjI2NyA0MC41MjQ0IDEwLjM1NDMgNDAuNTQ2NCAxMS4wMjlIMzkuMTkzNEMzOS4xNzE0IDEwLjcxMzcgMzkuMDUwNCAxMC40NzE3IDM4LjgzMDQgMTAuMzAzQzM4LjYxNzggMTAuMTI3IDM4LjM0MjggMTAuMDM5IDM4LjAwNTQgMTAuMDM5QzM3LjYzMTQgMTAuMDM5IDM3LjMzODEgMTAuMTQxNyAzNy4xMjU0IDEwLjM0N0MzNi45MTI4IDEwLjU0NSAzNi44MDY0IDEwLjgzMSAzNi44MDY0IDExLjIwNVYxMi43MzRDMzYuODA2NCAxMy4xMDggMzYuOTEyOCAxMy4zOTc3IDM3LjEyNTQgMTMuNjAzQzM3LjMzODEgMTMuODA4MyAzNy42MzE0IDEzLjkxMSAzOC4wMDU0IDEzLjkxMUMzOC4zNTAxIDEzLjkxMSAzOC42Mjg4IDEzLjgyNjcgMzguODQxNCAxMy42NThDMzkuMDU0MSAxMy40ODIgMzkuMTcxNCAxMy4yMzYzIDM5LjE5MzQgMTIuOTIxSDQwLjU0NjRDNDAuNTI0NCAxMy41OTU3IDQwLjI4MjQgMTQuMTMxIDM5LjgyMDQgMTQuNTI3QzM5LjM2NTggMTQuOTE1NyAzOC43NjA4IDE1LjExIDM4LjAwNTQgMTUuMTFaTTQ0LjUxMzEgMTUuMTFDNDMuOTk5OCAxNS4xMSA0My41NTI1IDE1LjAxMSA0My4xNzExIDE0LjgxM0M0Mi43ODk4IDE0LjYxNSA0Mi40OTI4IDE0LjMzNjMgNDIuMjgwMSAxMy45NzdDNDIuMDc0OCAxMy42MTAzIDQxLjk3MjEgMTMuMTgxMyA0MS45NzIxIDEyLjY5VjExLjI2QzQxLjk3MjEgMTAuNzY4NyA0Mi4wNzQ4IDEwLjM0MzMgNDIuMjgwMSA5Ljk4NEM0Mi40OTI4IDkuNjE3MzMgNDIuNzg5OCA5LjMzNSA0My4xNzExIDkuMTM3QzQzLjU1MjUgOC45MzkgNDMuOTk5OCA4Ljg0IDQ0LjUxMzEgOC44NEM0NS4wMTkxIDguODQgNDUuNDU5MSA4LjkzOSA0NS44MzMxIDkuMTM3QzQ2LjIxNDUgOS4zMzUgNDYuNTA3OCA5LjYxMzY3IDQ2LjcxMzEgOS45NzNDNDYuOTI1OCAxMC4zMjUgNDcuMDMyMSAxMC43MzkzIDQ3LjAzMjEgMTEuMjE2VjEyLjMxNkg0My4yOTIxVjEyLjczNEM0My4yOTIxIDEzLjE0NDcgNDMuMzk4NSAxMy40NTYzIDQzLjYxMTEgMTMuNjY5QzQzLjgyMzggMTMuODc0MyA0NC4xMjQ1IDEzLjk3NyA0NC41MTMxIDEzLjk3N0M0NC43OTkxIDEzLjk3NyA0NS4wNDExIDEzLjkyOTMgNDUuMjM5MSAxMy44MzRDNDUuNDQ0NSAxMy43MzEzIDQ1LjU2NTUgMTMuNTg0NyA0NS42MDIxIDEzLjM5NEg0Ni45NjYxQzQ2Ljg3MDggMTMuOTE0NyA0Ni41OTk1IDE0LjMzMjcgNDYuMTUyMSAxNC42NDhDNDUuNzA0OCAxNC45NTYgNDUuMTU4NSAxNS4xMSA0NC41MTMxIDE1LjExWk00My4yOTIxIDExLjIxNlYxMS40MjVMNDUuNzEyMSAxMS40MTRWMTEuMjA1QzQ1LjcxMjEgMTAuNzg3IDQ1LjYwOTUgMTAuNDY0MyA0NS40MDQxIDEwLjIzN0M0NS4xOTg4IDEwLjAwOTcgNDQuOTAxOCA5Ljg5NiA0NC41MTMxIDkuODk2QzQ0LjEwOTggOS44OTYgNDMuODA1NSAxMC4wMTMzIDQzLjYwMDEgMTAuMjQ4QzQzLjM5NDggMTAuNDc1MyA0My4yOTIxIDEwLjc5OCA0My4yOTIxIDExLjIxNlpNNTcuNzkyNiAxNS4xMUM1Ny4yNzE5IDE1LjExIDU2LjgxNzIgMTUuMDE0NyA1Ni40Mjg2IDE0LjgyNEM1Ni4wNDcyIDE0LjYyNiA1NS43NTAyIDE0LjM1MSA1NS41Mzc2IDEzLjk5OUM1NS4zMjQ5IDEzLjYzOTcgNTUuMjE4NiAxMy4yMTggNTUuMjE4NiAxMi43MzRWMTEuMjE2QzU1LjIxODYgMTAuNzMyIDU1LjMyNDkgMTAuMzE0IDU1LjUzNzYgOS45NjJDNTUuNzUwMiA5LjYwMjY3IDU2LjA0NzIgOS4zMjc2NyA1Ni40Mjg2IDkuMTM3QzU2LjgxNzIgOC45MzkgNTcuMjcxOSA4Ljg0IDU3Ljc5MjYgOC44NEM1OC41NDc5IDguODQgNTkuMTUyOSA5LjAzOCA1OS42MDc2IDkuNDM0QzYwLjA2OTYgOS44MjI2NyA2MC4zMTE2IDEwLjM1NDMgNjAuMzMzNiAxMS4wMjlINTguOTgwNkM1OC45NTg2IDEwLjcxMzcgNTguODM3NiAxMC40NzE3IDU4LjYxNzYgMTAuMzAzQzU4LjQwNDkgMTAuMTI3IDU4LjEyOTkgMTAuMDM5IDU3Ljc5MjYgMTAuMDM5QzU3LjQxODYgMTAuMDM5IDU3LjEyNTIgMTAuMTQxNyA1Ni45MTI2IDEwLjM0N0M1Ni42OTk5IDEwLjU0NSA1Ni41OTM2IDEwLjgzMSA1Ni41OTM2IDExLjIwNVYxMi43MzRDNTYuNTkzNiAxMy4xMDggNTYuNjk5OSAxMy4zOTc3IDU2LjkxMjYgMTMuNjAzQzU3LjEyNTIgMTMuODA4MyA1Ny40MTg2IDEzLjkxMSA1Ny43OTI2IDEzLjkxMUM1OC4xMzcyIDEzLjkxMSA1OC40MTU5IDEzLjgyNjcgNTguNjI4NiAxMy42NThDNTguODQxMiAxMy40ODIgNTguOTU4NiAxMy4yMzYzIDU4Ljk4MDYgMTIuOTIxSDYwLjMzMzZDNjAuMzExNiAxMy41OTU3IDYwLjA2OTYgMTQuMTMxIDU5LjYwNzYgMTQuNTI3QzU5LjE1MjkgMTQuOTE1NyA1OC41NDc5IDE1LjExIDU3Ljc5MjYgMTUuMTFaTTY0LjI4OTMgMTUuMDk5QzYzLjUxMTkgMTUuMDk5IDYyLjg5NTkgMTQuODgyNyA2Mi40NDEzIDE0LjQ1QzYxLjk4NjYgMTQuMDEgNjEuNzU5MyAxMy40MTk3IDYxLjc1OTMgMTIuNjc5VjExLjI3MUM2MS43NTkzIDEwLjUyMyA2MS45ODY2IDkuOTMyNjcgNjIuNDQxMyA5LjVDNjIuODk1OSA5LjA2NzMzIDYzLjUxMTkgOC44NTEgNjQuMjg5MyA4Ljg1MUM2NS4wNjY2IDguODUxIDY1LjY4MjYgOS4wNjczMyA2Ni4xMzczIDkuNUM2Ni41OTE5IDkuOTMyNjcgNjYuODE5MyAxMC41MjMgNjYuODE5MyAxMS4yNzFWMTIuNjc5QzY2LjgxOTMgMTMuNDE5NyA2Ni41OTE5IDE0LjAxIDY2LjEzNzMgMTQuNDVDNjUuNjgyNiAxNC44ODI3IDY1LjA2NjYgMTUuMDk5IDY0LjI4OTMgMTUuMDk5Wk02NC4yODkzIDEzLjlDNjQuNjU1OSAxMy45IDY0LjkzODMgMTMuODAxIDY1LjEzNjMgMTMuNjAzQzY1LjM0MTYgMTMuMzk3NyA2NS40NDQzIDEzLjEwNDMgNjUuNDQ0MyAxMi43MjNWMTEuMjI3QzY1LjQ0NDMgMTAuODQ1NyA2NS4zNDE2IDEwLjU1NiA2NS4xMzYzIDEwLjM1OEM2NC45MzgzIDEwLjE1MjcgNjQuNjU1OSAxMC4wNSA2NC4yODkzIDEwLjA1QzYzLjkyMjYgMTAuMDUgNjMuNjM2NiAxMC4xNTI3IDYzLjQzMTMgMTAuMzU4QzYzLjIzMzMgMTAuNTU2IDYzLjEzNDMgMTAuODQ1NyA2My4xMzQzIDExLjIyN1YxMi43MjNDNjMuMTM0MyAxMy4xMDQzIDYzLjIzMzMgMTMuMzk3NyA2My40MzEzIDEzLjYwM0M2My42MzY2IDEzLjgwMSA2My45MjI2IDEzLjkgNjQuMjg5MyAxMy45Wk03MC4zMzUgMTUuMTFDNjkuNzQ4MyAxNS4xMSA2OS4yNzE2IDE0LjkwMSA2OC45MDUgMTQuNDgzQzY4LjU0NTYgMTQuMDY1IDY4LjM2NiAxMy41MDQgNjguMzY2IDEyLjhWMTEuMTYxQzY4LjM2NiAxMC40NDk3IDY4LjU0NTYgOS44ODUgNjguOTA1IDkuNDY3QzY5LjI2NDMgOS4wNDkgNjkuNzQxIDguODQgNzAuMzM1IDguODRDNzAuNzUzIDguODQgNzEuMTA1IDguOTQ2MzMgNzEuMzkxIDkuMTU5QzcxLjY4NDMgOS4zNzE2NyA3MS44ODk2IDkuNjY4NjcgNzIuMDA3IDEwLjA1TDcxLjk2MyA4LjY2NFY2Ljk3SDczLjMzOFYxNUg3MS45OTZWMTMuOUM3MS44ODYgMTQuMjgxMyA3MS42ODggMTQuNTc4MyA3MS40MDIgMTQuNzkxQzcxLjExNiAxNS4wMDM3IDcwLjc2MDMgMTUuMTEgNzAuMzM1IDE1LjExWk03MC44NTIgMTMuOTIyQzcxLjIwNCAxMy45MjIgNzEuNDc1MyAxMy44MTU3IDcxLjY2NiAxMy42MDNDNzEuODY0IDEzLjM5MDMgNzEuOTYzIDEzLjA4OTcgNzEuOTYzIDEyLjcwMVYxMS4yNDlDNzEuOTYzIDEwLjg2MDMgNzEuODY0IDEwLjU1OTcgNzEuNjY2IDEwLjM0N0M3MS40NzUzIDEwLjEzNDMgNzEuMjA0IDEwLjAyOCA3MC44NTIgMTAuMDI4QzcwLjUgMTAuMDI4IDcwLjIyNSAxMC4xMjMzIDcwLjAyNyAxMC4zMTRDNjkuODM2MyAxMC41MDQ3IDY5Ljc0MSAxMC43OTggNjkuNzQxIDExLjE5NFYxMi43NTZDNjkuNzQxIDEzLjE1MiA2OS44MzYzIDEzLjQ0NTMgNzAuMDI3IDEzLjYzNkM3MC4yMjUgMTMuODI2NyA3MC41IDEzLjkyMiA3MC44NTIgMTMuOTIyWk03Ny40OTE3IDE1LjExQzc2Ljk3ODMgMTUuMTEgNzYuNTMxIDE1LjAxMSA3Ni4xNDk3IDE0LjgxM0M3NS43NjgzIDE0LjYxNSA3NS40NzEzIDE0LjMzNjMgNzUuMjU4NyAxMy45NzdDNzUuMDUzMyAxMy42MTAzIDc0Ljk1MDcgMTMuMTgxMyA3NC45NTA3IDEyLjY5VjExLjI2Qzc0Ljk1MDcgMTAuNzY4NyA3NS4wNTMzIDEwLjM0MzMgNzUuMjU4NyA5Ljk4NEM3NS40NzEzIDkuNjE3MzMgNzUuNzY4MyA5LjMzNSA3Ni4xNDk3IDkuMTM3Qzc2LjUzMSA4LjkzOSA3Ni45NzgzIDguODQgNzcuNDkxNyA4Ljg0Qzc3Ljk5NzcgOC44NCA3OC40Mzc3IDguOTM5IDc4LjgxMTcgOS4xMzdDNzkuMTkzIDkuMzM1IDc5LjQ4NjMgOS42MTM2NyA3OS42OTE3IDkuOTczQzc5LjkwNDMgMTAuMzI1IDgwLjAxMDcgMTAuNzM5MyA4MC4wMTA3IDExLjIxNlYxMi4zMTZINzYuMjcwN1YxMi43MzRDNzYuMjcwNyAxMy4xNDQ3IDc2LjM3NyAxMy40NTYzIDc2LjU4OTcgMTMuNjY5Qzc2LjgwMjMgMTMuODc0MyA3Ny4xMDMgMTMuOTc3IDc3LjQ5MTcgMTMuOTc3Qzc3Ljc3NzcgMTMuOTc3IDc4LjAxOTcgMTMuOTI5MyA3OC4yMTc3IDEzLjgzNEM3OC40MjMgMTMuNzMxMyA3OC41NDQgMTMuNTg0NyA3OC41ODA3IDEzLjM5NEg3OS45NDQ3Qzc5Ljg0OTMgMTMuOTE0NyA3OS41NzggMTQuMzMyNyA3OS4xMzA3IDE0LjY0OEM3OC42ODMzIDE0Ljk1NiA3OC4xMzcgMTUuMTEgNzcuNDkxNyAxNS4xMVpNNzYuMjcwNyAxMS4yMTZWMTEuNDI1TDc4LjY5MDcgMTEuNDE0VjExLjIwNUM3OC42OTA3IDEwLjc4NyA3OC41ODggMTAuNDY0MyA3OC4zODI3IDEwLjIzN0M3OC4xNzczIDEwLjAwOTcgNzcuODgwMyA5Ljg5NiA3Ny40OTE3IDkuODk2Qzc3LjA4ODMgOS44OTYgNzYuNzg0IDEwLjAxMzMgNzYuNTc4NyAxMC4yNDhDNzYuMzczMyAxMC40NzUzIDc2LjI3MDcgMTAuNzk4IDc2LjI3MDcgMTEuMjE2WiIvPiYjeGE7PC9zdmc+;" vertex="1" parent="1">
          <mxGeometry x="57.000930175781264" y="158.49526715959828" width="89" height="23" as="geometry" />
        </mxCell>
        <mxCell id="4B-1JcJdaMHV0bxuoDUO-47" value="" style="shape=image;verticalLabelPosition=bottom;labelBackgroundColor=default;verticalAlign=top;aspect=fixed;imageAspect=0;image=data:image/svg+xml,PHN2ZyB4bWxucz0iaHR0cDovL3d3dy53My5vcmcvMjAwMC9zdmciIGZpbGw9Im5vbmUiIHZpZXdCb3g9IjAgMCAxMDMgNDQiIGhlaWdodD0iNDQiIHdpZHRoPSIxMDMiPiYjeGE7PHJlY3QgZmlsbD0iI0ZDRkNGQyIgcng9IjMiIGhlaWdodD0iNDIiIHdpZHRoPSIxMDEiIHk9IjEiIHg9IjEiLz4mI3hhOzxyZWN0IHN0cm9rZS13aWR0aD0iMiIgc3Ryb2tlPSJibGFjayIgcng9IjMiIGhlaWdodD0iNDIiIHdpZHRoPSIxMDEiIHk9IjEiIHg9IjEiLz4mI3hhOzxnIGNsaXAtcGF0aD0idXJsKCNjbGlwMF8xNDNfNTIyOSkiPiYjeGE7PHBhdGggZmlsbD0idXJsKCNwYWludDBfbGluZWFyXzE0M181MjI5KSIgZD0iTTMxLjQ5NDkgMTUuMDVMMjIuNTE5NiAzMS4wOTk3QzIyLjMzNDEgMzEuNDMxMSAyMS44NTggMzEuNDMzIDIxLjY3IDMxLjEwMzRMMTIuNTE2NiAxNS4wNTE5QzEyLjMxMTQgMTQuNjkyMiAxMi42MTg1IDE0LjI1NyAxMy4wMjYxIDE0LjMyOTdMMjIuMDExMSAxNS45MzU1QzIyLjA2ODUgMTUuOTQ1OSAyMi4xMjcyIDE1Ljk0NTkgMjIuMTg0NiAxNS45MzU1TDMwLjk4MTQgMTQuMzMyMkMzMS4zODc0IDE0LjI1ODMgMzEuNjk2MyAxNC42ODk4IDMxLjQ5NDkgMTUuMDVaIi8+JiN4YTs8cGF0aCBmaWxsPSJ1cmwoI3BhaW50MV9saW5lYXJfMTQzXzUyMjkpIiBkPSJNMjYuMjkwNCAxMi4yMjM1TDE5LjY0ODggMTMuNTI0N0MxOS41OTU4IDEzLjUzNTEgMTkuNTQ3OCAxMy41NjI3IDE5LjUxMjIgMTMuNjAzNEMxOS40NzY2IDEzLjY0NCAxOS40NTU1IDEzLjY5NTMgMTkuNDUyMyAxMy43NDkyTDE5LjA0MzQgMjAuNjUwNUMxOS4wNDEyIDIwLjY4ODMgMTkuMDQ3OCAyMC43MjYyIDE5LjA2MjggMjAuNzYxQzE5LjA3NzcgMjAuNzk1OCAxOS4xMDA2IDIwLjgyNjcgMTkuMTI5NiAyMC44NTEyQzE5LjE1ODUgMjAuODc1NiAxOS4xOTI4IDIwLjg5MyAxOS4yMjk2IDIwLjkwMkMxOS4yNjY1IDIwLjkxMDkgMTkuMzA0OSAyMC45MTExIDE5LjM0MTggMjAuOTAyN0wyMS4xOTEyIDIwLjQ3NTNDMjEuMjMxIDIwLjQ2NjIgMjEuMjcyNSAyMC40NjcyIDIxLjMxMTkgMjAuNDc4MkMyMS4zNTEyIDIwLjQ4OTMgMjEuMzg3MSAyMC41MSAyMS40MTY0IDIwLjUzODZDMjEuNDQ1NiAyMC41NjcxIDIxLjQ2NzIgMjAuNjAyNiAyMS40NzkyIDIwLjY0MTZDMjEuNDkxMiAyMC42ODA3IDIxLjQ5MzEgMjAuNzIyMiAyMS40ODQ5IDIwLjc2MjJMMjAuOTM1NCAyMy40NTI3QzIwLjkyNyAyMy40OTQxIDIwLjkyOTUgMjMuNTM3IDIwLjk0MjcgMjMuNTc3MUMyMC45NTU4IDIzLjYxNzMgMjAuOTc5MSAyMy42NTMzIDIxLjAxMDQgMjMuNjgxOEMyMS4wNDE3IDIzLjcxMDIgMjEuMDc5OCAyMy43MyAyMS4xMjEgMjMuNzM5M0MyMS4xNjIyIDIzLjc0ODYgMjEuMjA1MSAyMy43NDcgMjEuMjQ1NiAyMy43MzQ3TDIyLjM4NzQgMjMuMzg3NEMyMi41NjQ1IDIzLjMzMzYgMjIuNzM0OCAyMy40ODkyIDIyLjY5NzYgMjMuNjcwNUwyMS44MjQyIDI3Ljg5NjZDMjEuNzY5OCAyOC4xNjA5IDIyLjEyMTMgMjguMzA1IDIyLjI2NzkgMjguMDc4NUwyMi4zNjU2IDI3LjkyNzJMMjcuNzc4MSAxNy4xMjU2QzI3Ljg2OSAxNi45NDQ0IDI3LjcxMjMgMTYuNzM4MSAyNy41MTQgMTYuNzc2NkwyNS42MTAxIDE3LjE0NDFDMjUuNTY5MSAxNy4xNTIgMjUuNTI2OCAxNy4xNDkzIDI1LjQ4NzIgMTcuMTM2MkMyNS40NDc2IDE3LjEyMzEgMjUuNDEyIDE3LjEgMjUuMzgzOCAxNy4wNjkyQzI1LjM1NTcgMTcuMDM4NCAyNS4zMzYgMTcuMDAwOCAyNS4zMjY1IDE2Ljk2MDJDMjUuMzE3MSAxNi45MTk1IDI1LjMxODMgMTYuODc3MSAyNS4zMjk5IDE2LjgzN0wyNi41NzIxIDEyLjUzMDVDMjYuNTgzOCAxMi40OTAzIDI2LjU4NDkgMTIuNDQ3NyAyNi41NzU0IDEyLjQwN0MyNi41NjU4IDEyLjM2NjIgMjYuNTQ2IDEyLjMyODYgMjYuNTE3NyAxMi4yOTc3QzI2LjQ4OTMgMTIuMjY2OSAyNi40NTM2IDEyLjI0MzggMjYuNDEzOCAxMi4yMzA4QzI2LjM3NCAxMi4yMTc4IDI2LjMzMTUgMTIuMjE1MyAyNi4yOTA0IDEyLjIyMzVaIi8+JiN4YTs8L2c+JiN4YTs8cGF0aCBmaWxsPSJibGFjayIgZD0iTTQ2LjgyNCAyNS41TDQ0LjggMTcuNDdINDYuMjE5TDQ3LjQ0IDIyLjcwNkM0Ny41MDYgMjIuOTYyNyA0Ny41NjQ3IDIzLjI0MTMgNDcuNjE2IDIzLjU0MkM0Ny42NzQ3IDIzLjgzNTMgNDcuNzE4NyAyNC4wNyA0Ny43NDggMjQuMjQ2QzQ3Ljc3NzQgMjQuMDcgNDcuODE3NyAyMy44MzUzIDQ3Ljg2OSAyMy41NDJDNDcuOTI3NyAyMy4yNDEzIDQ3Ljk5IDIyLjk1OSA0OC4wNTYgMjIuNjk1TDQ5LjIzMyAxNy40N0g1MC42M0w0OC42MDYgMjUuNUg0Ni44MjRaTTUxLjg0NjcgMjUuNVYyNC4yNTdINTMuOTE0N1YyMC42OTNINTIuMDY2N1YxOS40NUg1NS4yODk3VjI0LjI1N0g1Ny4xNDg3VjI1LjVINTEuODQ2N1pNNTQuNTA4NyAxOC40MzhDNTQuMjMwMSAxOC40MzggNTQuMDEwMSAxOC4zNjgzIDUzLjg0ODcgMTguMjI5QzUzLjY4NzQgMTguMDgyMyA1My42MDY3IDE3Ljg4OCA1My42MDY3IDE3LjY0NkM1My42MDY3IDE3LjQwNCA1My42ODc0IDE3LjIxMzMgNTMuODQ4NyAxNy4wNzRDNTQuMDEwMSAxNi45MjczIDU0LjIzMDEgMTYuODU0IDU0LjUwODcgMTYuODU0QzU0Ljc4NzQgMTYuODU0IDU1LjAwNzQgMTYuOTI3MyA1NS4xNjg3IDE3LjA3NEM1NS4zMzAxIDE3LjIxMzMgNTUuNDEwNyAxNy40MDQgNTUuNDEwNyAxNy42NDZDNTUuNDEwNyAxNy44ODggNTUuMzMwMSAxOC4wODIzIDU1LjE2ODcgMTguMjI5QzU1LjAwNzQgMTguMzY4MyA1NC43ODc0IDE4LjQzOCA1NC41MDg3IDE4LjQzOFpNNjEuNTExNCAyNS41QzYwLjk0NjggMjUuNSA2MC40OTU4IDI1LjMzODcgNjAuMTU4NCAyNS4wMTZDNTkuODI4NCAyNC42ODYgNTkuNjYzNCAyNC4yNDIzIDU5LjY2MzQgMjMuNjg1VjIwLjY5M0g1Ny45OTE0VjE5LjQ1SDU5LjY2MzRWMTcuNzQ1SDYxLjA0OTRWMTkuNDVINjMuNDU4NFYyMC42OTNINjEuMDQ5NFYyMy42NTJDNjEuMDQ5NCAyMy44MjggNjEuMDk3MSAyMy45NzQ3IDYxLjE5MjQgMjQuMDkyQzYxLjI5NTEgMjQuMjAyIDYxLjQzNDQgMjQuMjU3IDYxLjYxMDQgMjQuMjU3SDYzLjQwMzRWMjUuNUg2MS41MTE0Wk02Ny41MTMxIDI1LjYxQzY2Ljk5OTggMjUuNjEgNjYuNTUyNSAyNS41MTEgNjYuMTcxMSAyNS4zMTNDNjUuNzg5OCAyNS4xMTUgNjUuNDkyOCAyNC44MzYzIDY1LjI4MDEgMjQuNDc3QzY1LjA3NDggMjQuMTEwMyA2NC45NzIxIDIzLjY4MTMgNjQuOTcyMSAyMy4xOVYyMS43NkM2NC45NzIxIDIxLjI2ODcgNjUuMDc0OCAyMC44NDMzIDY1LjI4MDEgMjAuNDg0QzY1LjQ5MjggMjAuMTE3MyA2NS43ODk4IDE5LjgzNSA2Ni4xNzExIDE5LjYzN0M2Ni41NTI1IDE5LjQzOSA2Ni45OTk4IDE5LjM0IDY3LjUxMzEgMTkuMzRDNjguMDE5MSAxOS4zNCA2OC40NTkxIDE5LjQzOSA2OC44MzMxIDE5LjYzN0M2OS4yMTQ1IDE5LjgzNSA2OS41MDc4IDIwLjExMzcgNjkuNzEzMSAyMC40NzNDNjkuOTI1OCAyMC44MjUgNzAuMDMyMSAyMS4yMzkzIDcwLjAzMjEgMjEuNzE2VjIyLjgxNkg2Ni4yOTIxVjIzLjIzNEM2Ni4yOTIxIDIzLjY0NDcgNjYuMzk4NSAyMy45NTYzIDY2LjYxMTEgMjQuMTY5QzY2LjgyMzggMjQuMzc0MyA2Ny4xMjQ1IDI0LjQ3NyA2Ny41MTMxIDI0LjQ3N0M2Ny43OTkxIDI0LjQ3NyA2OC4wNDExIDI0LjQyOTMgNjguMjM5MSAyNC4zMzRDNjguNDQ0NSAyNC4yMzEzIDY4LjU2NTUgMjQuMDg0NyA2OC42MDIxIDIzLjg5NEg2OS45NjYxQzY5Ljg3MDggMjQuNDE0NyA2OS41OTk1IDI0LjgzMjcgNjkuMTUyMSAyNS4xNDhDNjguNzA0OCAyNS40NTYgNjguMTU4NSAyNS42MSA2Ny41MTMxIDI1LjYxWk02Ni4yOTIxIDIxLjcxNlYyMS45MjVMNjguNzEyMSAyMS45MTRWMjEuNzA1QzY4LjcxMjEgMjEuMjg3IDY4LjYwOTUgMjAuOTY0MyA2OC40MDQxIDIwLjczN0M2OC4xOTg4IDIwLjUwOTcgNjcuOTAxOCAyMC4zOTYgNjcuNTEzMSAyMC4zOTZDNjcuMTA5OCAyMC4zOTYgNjYuODA1NSAyMC41MTMzIDY2LjYwMDEgMjAuNzQ4QzY2LjM5NDggMjAuOTc1MyA2Ni4yOTIxIDIxLjI5OCA2Ni4yOTIxIDIxLjcxNlpNNzQuMDk3OSAyNS42MUM3My43ODk5IDI1LjYxIDczLjU0MDUgMjUuNTE4MyA3My4zNDk5IDI1LjMzNUM3My4xNjY1IDI1LjE0NDMgNzMuMDc0OSAyNC44OTg3IDczLjA3NDkgMjQuNTk4QzczLjA3NDkgMjQuMjk3MyA3My4xNjY1IDI0LjA1MTcgNzMuMzQ5OSAyMy44NjFDNzMuNTQwNSAyMy42NzAzIDczLjc4OTkgMjMuNTc1IDc0LjA5NzkgMjMuNTc1Qzc0LjQwNTkgMjMuNTc1IDc0LjY1MTUgMjMuNjcwMyA3NC44MzQ5IDIzLjg2MUM3NS4wMjU1IDI0LjA1MTcgNzUuMTIwOSAyNC4yOTczIDc1LjEyMDkgMjQuNTk4Qzc1LjEyMDkgMjQuODk4NyA3NS4wMjU1IDI1LjE0NDMgNzQuODM0OSAyNS4zMzVDNzQuNjUxNSAyNS41MTgzIDc0LjQwNTkgMjUuNjEgNzQuMDk3OSAyNS42MVpNNzguMjg0NiAyNy40OFYyNi4yMzdINzkuODc5NkM4MC4yMzE2IDI2LjIzNyA4MC41MTAyIDI2LjEzMDcgODAuNzE1NiAyNS45MThDODAuOTIwOSAyNS43MTI3IDgxLjAyMzYgMjUuNDMwMyA4MS4wMjM2IDI1LjA3MVYyMC42OTNINzguMjI5NlYxOS40NUg4Mi4zOTg2VjI1LjEwNEM4Mi4zOTg2IDI1LjgzNzMgODIuMTc4NiAyNi40MTY3IDgxLjczODYgMjYuODQyQzgxLjI5ODYgMjcuMjY3MyA4MC43MDQ2IDI3LjQ4IDc5Ljk1NjYgMjcuNDhINzguMjg0NlpNODEuNjM5NiAxOC40MzhDODEuMzYwOSAxOC40MzggODEuMTQwOSAxOC4zNjgzIDgwLjk3OTYgMTguMjI5QzgwLjgxODIgMTguMDgyMyA4MC43Mzc2IDE3Ljg4OCA4MC43Mzc2IDE3LjY0NkM4MC43Mzc2IDE3LjQwNCA4MC44MTgyIDE3LjIxMzMgODAuOTc5NiAxNy4wNzRDODEuMTQwOSAxNi45MjczIDgxLjM2MDkgMTYuODU0IDgxLjYzOTYgMTYuODU0QzgxLjkxODIgMTYuODU0IDgyLjEzODIgMTYuOTI3MyA4Mi4yOTk2IDE3LjA3NEM4Mi40NjA5IDE3LjIxMzMgODIuNTQxNiAxNy40MDQgODIuNTQxNiAxNy42NDZDODIuNTQxNiAxNy44ODggODIuNDYwOSAxOC4wODIzIDgyLjI5OTYgMTguMjI5QzgyLjEzODIgMTguMzY4MyA4MS45MTgyIDE4LjQzOCA4MS42Mzk2IDE4LjQzOFpNODcuMDM2MyAyNS41OTlDODYuMzE3NiAyNS41OTkgODUuNzQ5MyAyNS40Mzc3IDg1LjMzMTMgMjUuMTE1Qzg0LjkxMzMgMjQuNzg1IDg0LjcwNDMgMjQuMzQxMyA4NC43MDQzIDIzLjc4NEg4Ni4wNTczQzg2LjA1NzMgMjQuMDE4NyA4Ni4xNDE2IDI0LjE5ODMgODYuMzEwMyAyNC4zMjNDODYuNDg2MyAyNC40NDc3IDg2LjcyODMgMjQuNTEgODcuMDM2MyAyNC41MUg4Ny41MjAzQzg3Ljg1MDMgMjQuNTEgODguMTAzMyAyNC40NDc3IDg4LjI3OTMgMjQuMzIzQzg4LjQ2MjYgMjQuMTk4MyA4OC41NTQzIDI0LjAxODcgODguNTU0MyAyMy43ODRDODguNTU0MyAyMy41NjQgODguNDkxOSAyMy40MDI3IDg4LjM2NzMgMjMuM0M4OC4yNDI2IDIzLjE5IDg4LjA1MTkgMjMuMTE2NyA4Ny43OTUzIDIzLjA4TDg2LjI4ODMgMjIuODgyQzg1LjgwNDMgMjIuODE2IDg1LjQzMDMgMjIuNjI5IDg1LjE2NjMgMjIuMzIxQzg0LjkwOTYgMjIuMDEzIDg0Ljc4MTMgMjEuNjEzMyA4NC43ODEzIDIxLjEyMkM4NC43ODEzIDIwLjU1IDg0Ljk3MTkgMjAuMTEzNyA4NS4zNTMzIDE5LjgxM0M4NS43MzQ2IDE5LjUwNSA4Ni4yODQ2IDE5LjM1MSA4Ny4wMDMzIDE5LjM1MUg4Ny41MDkzQzg4LjE4MzkgMTkuMzUxIDg4LjcyNjYgMTkuNTA1IDg5LjEzNzMgMTkuODEzQzg5LjU0NzkgMjAuMTIxIDg5Ljc2MDYgMjAuNTMxNyA4OS43NzUzIDIxLjA0NUg4OC40MTEzQzg4LjQwMzkgMjAuODU0MyA4OC4zMTk2IDIwLjcwNCA4OC4xNTgzIDIwLjU5NEM4Ny45OTY5IDIwLjQ3NjcgODcuNzgwNiAyMC40MTggODcuNTA5MyAyMC40MThIODcuMDAzM0M4Ni43MDk5IDIwLjQxOCA4Ni40ODYzIDIwLjQ4MDMgODYuMzMyMyAyMC42MDVDODYuMTc4MyAyMC43MjIzIDg2LjEwMTMgMjAuODgzNyA4Ni4xMDEzIDIxLjA4OUM4Ni4xMDEzIDIxLjI3MjMgODYuMTU2MyAyMS40MDggODYuMjY2MyAyMS40OTZDODYuMzgzNiAyMS41ODQgODYuNTUyMyAyMS42MzkgODYuNzcyMyAyMS42NjFMODguMTkxMyAyMS44NTlDODguNzQ4NiAyMS45MjUgODkuMTY2NiAyMi4xMjMgODkuNDQ1MyAyMi40NTNDODkuNzMxMyAyMi43NzU3IDg5Ljg3NDMgMjMuMjEyIDg5Ljg3NDMgMjMuNzYyQzg5Ljg3NDMgMjQuMzQ4NyA4OS42NzI2IDI0LjgwMzMgODkuMjY5MyAyNS4xMjZDODguODczMyAyNS40NDEzIDg4LjI5MDMgMjUuNTk5IDg3LjUyMDMgMjUuNTk5SDg3LjAzNjNaIi8+JiN4YTs8ZGVmcz4mI3hhOzxsaW5lYXJHcmFkaWVudCBncmFkaWVudFVuaXRzPSJ1c2VyU3BhY2VPblVzZSIgeTI9IjI4LjkyNzEiIHgyPSIyMy40NjM4IiB5MT0iMTMuNzU2MiIgeDE9IjEyLjI5MjkiIGlkPSJwYWludDBfbGluZWFyXzE0M181MjI5Ij4mI3hhOzxzdG9wIHN0b3AtY29sb3I9IiM0MUQxRkYiLz4mI3hhOzxzdG9wIHN0b3AtY29sb3I9IiNCRDM0RkUiIG9mZnNldD0iMSIvPiYjeGE7PC9saW5lYXJHcmFkaWVudD4mI3hhOzxsaW5lYXJHcmFkaWVudCBncmFkaWVudFVuaXRzPSJ1c2VyU3BhY2VPblVzZSIgeTI9IjI2LjQzODgiIHgyPSIyMy41MTU5IiB5MT0iMTIuNTc2NiIgeDE9IjIxLjQ5NTEiIGlkPSJwYWludDFfbGluZWFyXzE0M181MjI5Ij4mI3hhOzxzdG9wIHN0b3AtY29sb3I9IiNGRkVBODMiLz4mI3hhOzxzdG9wIHN0b3AtY29sb3I9IiNGRkREMzUiIG9mZnNldD0iMC4wODMiLz4mI3hhOzxzdG9wIHN0b3AtY29sb3I9IiNGRkE4MDAiIG9mZnNldD0iMSIvPiYjeGE7PC9saW5lYXJHcmFkaWVudD4mI3hhOzxjbGlwUGF0aCBpZD0iY2xpcDBfMTQzXzUyMjkiPiYjeGE7PHJlY3QgdHJhbnNmb3JtPSJ0cmFuc2xhdGUoMTIgMTIpIiBmaWxsPSJ3aGl0ZSIgaGVpZ2h0PSIyMCIgd2lkdGg9IjIwIi8+JiN4YTs8L2NsaXBQYXRoPiYjeGE7PC9kZWZzPiYjeGE7PC9zdmc+;imageBackground=none;imageBorder=none;" vertex="1" parent="1">
          <mxGeometry x="50.000930175781264" y="222.99526715959826" width="103" height="44" as="geometry" />
        </mxCell>
        <mxCell id="4B-1JcJdaMHV0bxuoDUO-48" value="" style="endArrow=block;html=1;rounded=0;exitX=1;exitY=0.5;exitDx=0;exitDy=0;entryX=0;entryY=0.5;entryDx=0;entryDy=0;endFill=1;strokeWidth=2;" edge="1" parent="1" source="4B-1JcJdaMHV0bxuoDUO-46" target="4B-1JcJdaMHV0bxuoDUO-45">
          <mxGeometry relative="1" as="geometry">
            <mxPoint x="170" y="226" as="sourcePoint" />
            <mxPoint x="270" y="226" as="targetPoint" />
          </mxGeometry>
        </mxCell>
        <mxCell id="4B-1JcJdaMHV0bxuoDUO-49" value="&amp;nbsp;Push&amp;nbsp;" style="edgeLabel;resizable=0;html=1;;align=center;verticalAlign=middle;fontFamily=Jetbrains Mono;fontSource=https%3A%2F%2Ffonts.googleapis.com%2Fcss%3Ffamily%3DJetbrains%2BMono;fontStyle=1" connectable="0" vertex="1" parent="4B-1JcJdaMHV0bxuoDUO-48">
          <mxGeometry relative="1" as="geometry" />
        </mxCell>
        <mxCell id="4B-1JcJdaMHV0bxuoDUO-50" value="" style="endArrow=block;html=1;rounded=0;exitX=1;exitY=0.5;exitDx=0;exitDy=0;entryX=0;entryY=0.5;entryDx=0;entryDy=0;endFill=1;strokeWidth=2;" edge="1" parent="1" source="4B-1JcJdaMHV0bxuoDUO-45" target="4B-1JcJdaMHV0bxuoDUO-42">
          <mxGeometry relative="1" as="geometry">
            <mxPoint x="468" y="238" as="sourcePoint" />
            <mxPoint x="556" y="238" as="targetPoint" />
          </mxGeometry>
        </mxCell>
        <mxCell id="4B-1JcJdaMHV0bxuoDUO-51" value="&amp;nbsp;Triggers&amp;nbsp;" style="edgeLabel;resizable=0;html=1;;align=center;verticalAlign=middle;fontFamily=Jetbrains Mono;fontSource=https%3A%2F%2Ffonts.googleapis.com%2Fcss%3Ffamily%3DJetbrains%2BMono;fontStyle=1" connectable="0" vertex="1" parent="4B-1JcJdaMHV0bxuoDUO-50">
          <mxGeometry relative="1" as="geometry">
            <mxPoint x="-5" as="offset" />
          </mxGeometry>
        </mxCell>
        <mxCell id="4B-1JcJdaMHV0bxuoDUO-52" value="" style="endArrow=block;html=1;rounded=0;exitX=0.5;exitY=1;exitDx=0;exitDy=0;entryX=1;entryY=0.5;entryDx=0;entryDy=0;edgeStyle=orthogonalEdgeStyle;endFill=1;strokeWidth=2;" edge="1" parent="1" source="4B-1JcJdaMHV0bxuoDUO-42" target="4B-1JcJdaMHV0bxuoDUO-43">
          <mxGeometry relative="1" as="geometry">
            <mxPoint x="491" y="289" as="sourcePoint" />
            <mxPoint x="587" y="289" as="targetPoint" />
          </mxGeometry>
        </mxCell>
        <mxCell id="4B-1JcJdaMHV0bxuoDUO-53" value="&amp;nbsp;Executes&amp;nbsp;" style="edgeLabel;resizable=0;html=1;;align=center;verticalAlign=middle;fontFamily=Jetbrains Mono;fontSource=https%3A%2F%2Ffonts.googleapis.com%2Fcss%3Ffamily%3DJetbrains%2BMono;fontStyle=1" connectable="0" vertex="1" parent="4B-1JcJdaMHV0bxuoDUO-52">
          <mxGeometry relative="1" as="geometry">
            <mxPoint x="-29" as="offset" />
          </mxGeometry>
        </mxCell>
        <mxCell id="4B-1JcJdaMHV0bxuoDUO-54" value="" style="endArrow=block;html=1;rounded=0;exitX=0;exitY=0.5;exitDx=0;exitDy=0;entryX=1;entryY=0.5;entryDx=0;entryDy=0;endFill=1;strokeWidth=2;" edge="1" parent="1" source="4B-1JcJdaMHV0bxuoDUO-43" target="4B-1JcJdaMHV0bxuoDUO-47">
          <mxGeometry relative="1" as="geometry">
            <mxPoint x="259" y="334" as="sourcePoint" />
            <mxPoint x="355" y="334" as="targetPoint" />
          </mxGeometry>
        </mxCell>
        <mxCell id="4B-1JcJdaMHV0bxuoDUO-55" value="&amp;nbsp;Triggers&amp;nbsp;" style="edgeLabel;resizable=0;html=1;;align=center;verticalAlign=middle;fontFamily=Jetbrains Mono;fontSource=https%3A%2F%2Ffonts.googleapis.com%2Fcss%3Ffamily%3DJetbrains%2BMono;fontStyle=1" connectable="0" vertex="1" parent="4B-1JcJdaMHV0bxuoDUO-54">
          <mxGeometry relative="1" as="geometry" />
        </mxCell>
        <mxCell id="4B-1JcJdaMHV0bxuoDUO-56" value="" style="endArrow=block;html=1;rounded=0;exitX=0.5;exitY=1;exitDx=0;exitDy=0;entryX=0;entryY=0.5;entryDx=0;entryDy=0;edgeStyle=orthogonalEdgeStyle;endFill=1;strokeWidth=2;" edge="1" parent="1" source="4B-1JcJdaMHV0bxuoDUO-47" target="4B-1JcJdaMHV0bxuoDUO-44">
          <mxGeometry relative="1" as="geometry">
            <mxPoint x="321" y="370" as="sourcePoint" />
            <mxPoint x="163" y="423" as="targetPoint" />
          </mxGeometry>
        </mxCell>
        <mxCell id="4B-1JcJdaMHV0bxuoDUO-57" value="&amp;nbsp;Outputs ./dist&amp;nbsp;" style="edgeLabel;resizable=0;html=1;;align=center;verticalAlign=middle;fontFamily=Jetbrains Mono;fontSource=https%3A%2F%2Ffonts.googleapis.com%2Fcss%3Ffamily%3DJetbrains%2BMono;fontStyle=1;spacingTop=-1;" connectable="0" vertex="1" parent="4B-1JcJdaMHV0bxuoDUO-56">
          <mxGeometry relative="1" as="geometry">
            <mxPoint x="21" as="offset" />
          </mxGeometry>
        </mxCell>
        <mxCell id="4B-1JcJdaMHV0bxuoDUO-58" value="" style="endArrow=block;html=1;rounded=0;exitX=1;exitY=0.5;exitDx=0;exitDy=0;entryX=0;entryY=0.5;entryDx=0;entryDy=0;endFill=1;strokeWidth=2;" edge="1" parent="1" source="4B-1JcJdaMHV0bxuoDUO-44" target="4B-1JcJdaMHV0bxuoDUO-41">
          <mxGeometry relative="1" as="geometry">
            <mxPoint x="445" y="362" as="sourcePoint" />
            <mxPoint x="533" y="362" as="targetPoint" />
          </mxGeometry>
        </mxCell>
        <mxCell id="4B-1JcJdaMHV0bxuoDUO-59" value="&amp;nbsp;Deploys&amp;nbsp;" style="edgeLabel;resizable=0;html=1;;align=center;verticalAlign=middle;fontFamily=Jetbrains Mono;fontSource=https%3A%2F%2Ffonts.googleapis.com%2Fcss%3Ffamily%3DJetbrains%2BMono;fontStyle=1;spacing=0;spacingTop=-1;" connectable="0" vertex="1" parent="4B-1JcJdaMHV0bxuoDUO-58">
          <mxGeometry relative="1" as="geometry">
            <mxPoint x="-3" as="offset" />
          </mxGeometry>
        </mxCell>
      </root>
    </mxGraphModel>
  </diagram>
</mxfile>
